<svg xmlns="http://www.w3.org/2000/svg" height="335.42" width="263.83" viewBox="0 0 263.83214 335.42895"><g stroke="#000"><path transform="matrix(.51712 0 0 .54949 -728.94 119.97)" d="M1796.79 392.107s10.074-7.904 30.243-29.564c20.169-21.66 26.22-33.474 26.22-33.474-143.93 8.397-333.41 9.807-435.69 3.361 6.382 19.041 26.346 49.947 31.527 59.677z" fill-rule="evenodd" stroke-width=".493"/><path transform="matrix(.51712 0 0 .54949 -728.94 119.97)" fill-rule="evenodd" stroke-width=".542" d="M1662.4 332.47v-548.08l-10.936 3.485v545.21z"/><path transform="matrix(.51712 0 0 .54949 -728.94 119.97)" fill-rule="evenodd" stroke-width=".751" d="M1650.2 318.53l-86.254-.015-14.098 18.662 209.74-2.017c-4.511-6.581-9.466-12.718-16.638-16.638-40.426.002-64.354.005-92.75.008z"/><path transform="matrix(.51712 0 0 .54949 -728.94 119.97)" fill="none" stroke-width=".546" d="M1651.7-213.14l-233.6 545.79"/><path transform="matrix(.51712 0 0 .54949 -728.94 119.97)" fill="none" stroke-width=".544" d="M1661.8-217.27l188.93 545.36"/><path d="M125.653 282.383H36.579v-4.3h89.467z" fill-rule="evenodd" stroke-width=".276"/><path d="M38.363 278.245l3.058-3.526s7.786-2.468 9.732-2.82c1.946-.353 10.288 2.468 10.288 2.468s9.244-3.757 12.858-4.462c3.615-.705 6.604-1.885 13-.474 6.395 1.41 9.453 2.467 9.453 2.467s8.045-5.59 14.44-6.295c6.396-.705 13.921-4.281 13.921-4.281l-1.112 17.629z" fill-rule="evenodd" stroke-width=".31"/><path d="M9.237 289.333c-1.027 0-7.192 1.426-8.22-.237-1.027-1.663-.256-5.227-.256-5.227l12.329-.238s1.284 2.851-1.027 4.514c-2.312 1.664-2.826 1.188-2.826 1.188z" fill-rule="evenodd" stroke-width=".173"/><path transform="matrix(.51712 0 0 .54949 -728.94 119.97)" fill="none" stroke-width=".499" d="M1587.6 319.04l1.426 14.973m211.774-1.453s-6.417-18.539 16.4-19.252c22.817-.713 55.616-7.13 55.616-7.13-14.381 8.556-13.931 17.113-19.965 25.669"/><path transform="matrix(.51712 0 0 .54949 -728.94 119.97)" stroke-width=".756" d="M1652 327.84v-3.975l2.899-.33a306.68 306.68 0 0 0 5.042-.62l2.143-.29v9.19H1652v-3.975z"/><path transform="matrix(.51712 0 0 .54949 -728.94 119.97)" fill-rule="evenodd" stroke-width=".499" d="M1417.6 313.44c0-2.017 2.017-11.092 15.63-11.092s17.142 12.1 17.142 12.1l26.722 10.084s6.554 4.033-2.017 10.588c-8.57 6.554-52.435 0-52.435 0z"/><path transform="matrix(.51712 0 0 .54949 -728.94 119.97)" fill="none" stroke-width=".499" d="M1851.2 309.89l-11.48 21.462m-20.92-17.472l.5 17.469m16.4-19.959a1540.185 1540.185 0 0 0-3.494 19.965"/><path transform="matrix(.51712 0 0 .54949 -728.94 119.97)" fill="none" stroke-width=".501" d="M1796.5 332.21s-6.728-18.029 17.182-18.523c33.185-.686 59.007-6.86 58.271-6.86-4.698 8.8-16.807 15.75-20.918 24.697"/><path transform="matrix(.51712 0 0 .54949 -728.94 119.97)" fill="none" stroke-width=".499" d="M1448.1 308.48s20.963 12.977 45.919 10.481c24.956-2.496 25.455-2.995 25.455-2.995s12.478 6.988 32.443 3.993l19.965-2.994s17.968 7.486 33.441 3.992l15.473-3.493s12.977 5.989 27.95 5.49c14.974-.5 31.943-6.489 31.943-6.489s-3.494 8.485 31.943 3.494l35.437-4.991s17.968 6.988 39.43 2.496 21.961-4.492 21.961-4.492l4.492 1.996 7.487-2.995M1519 314.76l-.5 21.961m52.9-21.461l-.998 21.462M1680.7 315.26l-2.496 24.956M1621.3 316.76l.5 22.959m126.8-25.959v22.46M1648-216.07l14.823-.706"/><path transform="matrix(.51712 0 0 .54949 -728.94 119.97)" fill-rule="evenodd" stroke-width=".293" d="M1662-214.33s-9.85-2.104-9.85-1.339c0 .765-3.583 4.017 0 3.443 3.581-.574 9.85-2.104 9.85-2.104z"/><path transform="matrix(.51712 0 0 .54949 -728.94 119.97)" fill-rule="evenodd" stroke-width=".111" d="M1660.9-217.07c.821-.62 3.614-2.01 3.37-.57-.244 1.44 1.923 2.137-.97 1.898-2.891-.24-2.4-1.328-2.4-1.328z"/><path transform="matrix(.51712 0 0 .54949 -728.94 119.97)" fill="none" stroke-width=".533" d="M1652-213.91c-2.117 3.223-170.8 500.33-170.8 500.33"/><path transform="matrix(.51712 0 0 .54949 -728.94 119.97)" fill="none" stroke-width=".529" d="M1660.5-210.79l104.46 547.33"/><path transform="matrix(.51712 0 0 .54949 -728.94 119.97)" fill="none" stroke-width=".499" d="M1650.6 289.24s-11.294 31.058-20.47 15.529c-9.176-15.529-10.588-16.235-10.588-16.235s-7.764 18.352-15.529 10.588c-7.764-7.764-7.764-7.059-7.764-7.059M1484.7 290.65s8.47 21.176 16.941 9.882l8.47-11.294v-.706l.706-2.117"/><path transform="matrix(.51712 0 0 .54949 -728.94 119.97)" fill-rule="evenodd" stroke-width=".525" d="M1768.2 346.41c1.562-16.925-14.055-16.22 5.466-21.156 19.52-4.936 36.699-7.052 42.165 1.41 5.466 8.463 25.767 19.746 3.904 21.862-21.863 2.116-51.535-2.115-51.535-2.115z"/><path transform="matrix(.51712 0 0 .54949 -728.94 119.97)" fill-rule="evenodd" stroke-width=".143" d="M1844.1 332.06c.283-6.983-2.544-6.692.99-8.728 3.533-2.037 6.642-2.91 7.631.582.99 3.491 4.664 8.146.707 9.019-3.957.873-9.328-.873-9.328-.873z"/><path transform="matrix(.51712 0 0 .54949 -728.94 119.97)" fill="none" stroke-width=".531" d="M1650.6-212.74l-45.165 538.69"/><path transform="matrix(.51712 0 0 .54949 -728.94 119.97)" fill="none" stroke-width=".499" d="M1493.2 340.06c-22.284 7.769-1.516-18.164 9.882-23.293"/><path transform="matrix(.51712 0 0 .54949 -728.94 119.97)" fill-rule="evenodd" stroke-width=".499" d="M1506.6 335.12l28.234-4.941 4.941 9.882 3.53 6.353"/><path transform="matrix(.51712 0 0 .54949 -728.94 119.97)" fill-rule="evenodd" stroke-width=".177" d="M1658.6 316.26l-36.717-.002-6.001 2.436 89.283-.263c-1.92-.86-4.03-1.66-7.083-2.172l-39.482.001z"/><path transform="matrix(.51712 0 0 .54949 -728.94 119.97)" fill="none" stroke-width=".499" d="M1446.3 310.91s20.963 12.977 45.919 10.481c24.956-2.496 25.455-2.995 25.455-2.995s12.478 6.988 32.442 3.993l19.965-2.994s17.968 7.486 33.441 3.992l15.473-3.493s12.977 5.989 27.95 5.49c14.974-.5 31.943-6.489 31.943-6.489s-3.494 8.485 31.943 3.494l35.437-4.991s17.968 6.988 39.43 2.496 21.961-4.492 21.961-4.492l4.492 1.996 7.487-2.995"/><path transform="matrix(.51712 0 0 .54949 -728.94 119.97)" fill="none" stroke-width=".375" d="M1525.4 319.17s-6.33 31.258-11.473 15.629-5.934-16.339-5.934-16.339-4.352 18.471-8.704 10.656c-4.352-7.814-4.352-7.104-4.352-7.104"/><path transform="matrix(.51712 0 0 .54949 -728.94 119.97)" fill-rule="evenodd" stroke-width=".104" d="M1499.5 327.83c.885-6.192 2.064-11.647.147-11.647-1.916 0-5.307-.442-5.012 1.18.295 1.621 2.064 5.16 2.211 10.466.148 5.308-3.096 13.121-2.653 13.121s.737 6.192 3.98 3.686c3.244-2.506 6.487-6.192 5.602-7.371-.884-1.18-4.275-7.224-4.275-8.256s.147-1.77.147-1.77zm11.8-.5c.885-6.192 2.064-11.647.147-11.647-1.916 0-5.307-.442-5.012 1.18.295 1.621 2.064 5.16 2.211 10.466.148 5.308-3.096 13.121-2.653 13.121s.737 6.192 3.98 3.686c3.244-2.506 6.487-6.192 5.602-7.371-.884-1.18-4.275-7.224-4.275-8.256s.147-1.77.147-1.77z"/><path transform="matrix(.51712 0 0 .54949 -728.94 119.97)" fill-rule="evenodd" stroke-width=".101" d="M1822.7 323.8c-.822-6.193-1.918-11.648-.137-11.648s4.932-.442 4.658 1.18-1.918 5.16-2.055 10.469c-.137 5.308 2.877 13.123 2.466 13.123s-.685 6.192-3.699 3.686c-3.014-2.507-6.028-6.193-5.206-7.373.822-1.18 3.973-7.225 3.973-8.257s-.137-1.769-.137-1.769z"/><path transform="matrix(.51712 0 0 .54949 -728.94 119.97)" fill-rule="evenodd" stroke-width=".139" d="M1842.5 336.83c.318-5.787-2.864-5.546 1.114-7.233 3.978-1.688 7.479-2.412 8.593.482s5.251 6.751.796 7.474c-4.456.724-10.502-.723-10.502-.723z"/><path transform="matrix(.51712 0 0 .54949 -728.94 119.97)" fill-rule="evenodd" stroke-width=".125" d="M1647.3 174.97c-.5 15.683-1.167 29.499-.083 29.499s3.002 1.12 2.835-2.987-1.167-13.07-1.25-26.512c-.084-13.443 1.75-33.233 1.5-33.233s-.417-15.683-2.251-9.336c-1.835 6.348-3.67 15.683-3.169 18.67.5 2.988 2.418 18.297 2.418 20.911 0 2.614-.083 4.481-.083 4.481z"/><path transform="matrix(.51712 0 0 .54949 -728.94 119.97)" d="M1850.4 332.7l69.247 59.407" fill="none" stroke-width=".938" stroke-linecap="round"/><path transform="matrix(.51712 0 0 .54949 -728.94 119.97)" fill-rule="evenodd" stroke-width=".877" d="M1650.1 129.47l-1.08 9.978 15.665-14.254-1.08-9.265zm.1-193.472l-1.08 9.978 15.665-14.254-1.08-9.265z"/><path transform="matrix(.51712 0 0 .54949 -728.94 119.97)" fill="none" stroke-width="1.003" d="M1651.9-205.01l-3.535 150.72v193.38l-.707 179.16"/><path transform="matrix(.51712 0 0 .54949 -728.94 119.97)" fill="none" d="M1659.7-202.89l6.364 132.94v386.08M1647 132.28l-24.749 184.55m23.349-178.89l36.062 179.61"/><path transform="matrix(.51712 0 0 .54949 -728.94 119.97)" fill-rule="evenodd" stroke-width=".104" d="M1665.8 275.8c.885-6.192 2.064-11.647.147-11.647-1.916 0-5.307-.442-5.012 1.18.295 1.621 2.064 5.16 2.211 10.466.148 5.308-3.096 13.121-2.653 13.121s.737 6.192 3.98 3.686c3.244-2.506 6.487-6.192 5.602-7.371-.884-1.18-4.275-7.224-4.275-8.256s.147-1.77.147-1.77z"/></g></svg>