<svg xmlns="http://www.w3.org/2000/svg" height="265" viewBox="0 0 747.97375 265.21112" width="748" xmlns:xlink="http://www.w3.org/1999/xlink"><g transform="matrix(1.25 0 0 -1.25 .475 265)"><path d="M81.5 148c-1.8.781-3.45 1.54-4.98 2.51 2.36-.137 4 .141 4.13.147.166.007-6.51 1.76-8.62 3.91 3.23-1.28 4.75-1.01 6.75-.404-3.87 1.06-8.87 4.64-8.86 4.63 3.63-1 6.14.663 6.14.663s-5.06.803-7.98 3.07c3.61-1.12 4.23-.597 5.66.017-2.88.981-5.06 2.11-6.17 3.91.905-.89 2.19-.679 3.34-.412-1.55.48-2.09 1.02-2.98 1.81 1.99-.538 4.88-.174 4.72-.156-1.83.195-3.45.621-5.98 2.19 2.68-.6 5.26-.859 6.54.154-2.06.284-6.21 1.67-6.95 2.93 1.79-.207 4.38.214 4.38.214-2.89.74-5.23 1.93-6.72 3.33 1.41-.688 3-.618 3.87-.374-5.08 1.88-6.97 7.93-7.96 11.9-.636-4-1.98-10.2-6.88-12.5.894-.165 2.48-.095 3.82.715-1.37-1.53-3.59-2.92-6.4-3.91 0 0 2.62-.19 4.38.174-.626-1.32-4.64-3.07-6.67-3.54 1.37-.895 3.92-.41 6.53.425-2.38-1.79-3.96-2.36-5.76-2.71-.162-.031 2.75-.139 4.69.573-.813-.866-1.31-1.45-2.81-2.07 1.17-.165 2.46-.26 3.29.705-.951-1.89-3.02-3.21-5.8-4.44 1.49-.485 2.14-.956 5.64.483-2.71-2.51-7.68-3.76-7.68-3.76s2.65-1.44 6.18-.117c.012.005-4.65-4-8.41-5.4 2.04-.424 3.59-.56 6.69 1-1.91-2.33-8.4-4.66-8.24-4.65.131.006 1.79-.126 4.13.22-1.44-1.1-3.02-2-4.74-2.94 1.14-.617 3.35-.335 4.63.006-1.12-1.03-3.01-1.56-4.42-2.04 3.32-2.37 10.3-3.33 17.6-2.99l.31-6.99 4.74.21-.31 6.99c6.95.291 14.1 1.88 17.2 4.53-1.45.357-3.37.72-4.58 1.64 1.3-.227 3.47-.315 4.55.4"/><path id="c" d="M53 161s1.55.977.352 1.22c.275-.056-3.99-.979-5.2-.886-.74.057-3.03.909-3.04 1.68-.002.592 4.74-.977 5.85-.896 1.11.082-1.02.706-1.41 1.08-.389.374 4-.684 5.54-.459s-2.09.847-2.71.992c-.626.145 1.84.379 2.56 1.02.716.643-5.18-.683-8.07.259-2.89.943-3.46 2.46-3.5 2.77-.038.312.972-.492 2.68-1.32 1.17-.568 4.26-.75 3.23.007-.253.186-3.56 1.88-3.56 1.88s1.13-.261 2.76-.737 3.61-.856 4.49-.065c.556.5-.907.38-3.04.834-2.13.454-4.79 1.82-4.79 1.82l1.75-.411c1.75-.411 3.07-.028 2.6.134-2.14.74-5.57 2.49-5.57 2.49l2.14-.767c2.14-.767 2.86-.108 3.47.154.608.262-3.52 1.02-3.52 1.02l1.87-.152c1.87-.152 2.97.053 3.82.639.842.585-4.46-.197-5.98.597s-1.94 1.72-2.2 2.1c-.265.38 3.04-1.43 3.9-1.32.863.116-3.32 2.2-3.46 2.59-.141.386 2.03-.93 4.4-1.45.535-.117.733.316-.396.892-.59.3-3.57 1.91-3.57 1.91l1.25-.336c1.26-.336 2.26-.683 3-.494.736.19-3.17 1.66-3.17 1.66.904-.074 1.87-.107 2.75.145.311.089 1.08.418.486.704-.266.128-.848.04-1.15.054l-1.07.05c-1.13.054-2.31.116-3.32.627a4.135 4.135 0 0 0-1.25.973c-.24.277-.882 1.17-.037.845.874-.336 3.35-.79 2.84-.533-1.84.915-2.68 2.07-2.68 2.07s.468.336 2.48-.2c2.01-.539 2.63-.462 3.37-.35l-3.67 1.59s3.23-.093 4.19.654c.959.747 0 0-2.97-.053s-3.08.7-3.29.923c.086-.091 1.08.257 1.24.289.348.068.702.104 1.05.139.212.021 1.15.263.65.654-.1.077-.237.074-.362.066-.946-.058-1.9-.143-2.84-.048-.943.094-1.89.383-2.62.99-.572.478-1.01 1.19-1.07 1.94-.037.457.057.477.368.229.267-.213.484-.418.823-.52 1.13-.341 1.66-1.02 2.65-1.06.993-.035-1.81 1.56-2.19 1.86-.385.296 3.25-.64 4.11-.366.856.273-4.02 1.08-4.28 1.38-.088.1 1.22.17 1.34.178.35.021.727.039 1.06.157.127.044.257.092.359.184.057.05.2.36.223.369-1.84-.56-3.9-.31-5.57.643-.374.214-.564.395-.066.454.298.035.624-.013.923-.024.44-.016 1.27-.184 1.67.072.39.252-3.71 2.03-3.71 2.03s1.48-.013 2.84.126c1.36.138.727.345-.53.76-1.26.414-4.3 1.92-4.57 2.38-.269.458 2.37-.521 3.11-.332.734.189-1.79.861-3.22 2.44-.454.499-.689 1.06-1.1 1.57-.365-.548-.55-1.12-.956-1.66-1.29-1.7-3.74-2.59-2.99-2.72.75-.123 3.29 1.09 3.07.606-.227-.48-3.13-2.25-4.34-2.78-1.22-.524-1.83-.786-.462-.804 1.36-.018 2.84.126 2.84.126s-3.92-2.13-3.51-2.35c.417-.221 1.23.02 1.67.076.297.038.618.114.917.105.501-.015.328-.212-.025-.458-1.58-1.1-3.61-1.53-5.49-1.13.023-.005.194-.302.255-.347.11-.082.243-.119.374-.152.344-.087.72-.071 1.07-.062.119.003 1.42.05 1.35-.06-.233-.323-5.02-1.55-4.14-1.75.877-.195 4.42 1.06 4.06.729-.357-.33-3-2.17-2.02-2.05.987.122 1.45.847 2.55 1.29.329.132.526.355.774.59.288.275.383.264.387-.195.006-.756-.363-1.5-.89-2.03-.671-.67-1.59-1.04-2.52-1.22-.931-.178-1.88-.177-2.83-.203-.126-.004-.263-.012-.355-.097-.468-.434.493-.592.706-.594.353-.004.709-.01 1.06-.046.167-.017 1.19-.276 1.26-.178-.191-.24-.226-1-3.19-1.21-2.97-.21-3.99.45-2.97-.21s4.23-.283 4.23-.283l-3.52-1.91c.746-.045 1.37-.066 3.33.647 1.95.713 2.45.419 2.45.419s-.735-1.23-2.49-2.3c-.491-.301 1.94.37 2.78.782.813.398.253-.547.038-.844-.311-.43-.705-.8-1.16-1.08-.966-.598-2.13-.765-3.25-.918l-1.06-.145c-.297-.04-.884-.005-1.14-.155-.57-.337.229-.597.546-.66.899-.172 1.86-.054 2.76.1 0 0-3.76-1.81-3.01-1.94.75-.123 1.72.312 2.94.757l1.22.446s-2.83-1.87-3.39-2.22c-1.07-.674-.84-1.09-.316-.924 2.32.728 4.37 2.23 4.26 1.83-.107-.396-4.09-2.84-3.22-2.88.87-.04 4 2.06 3.77 1.65-.23-.402-.56-1.36-2.01-2.28-1.45-.926-6.79-.614-5.9-1.12.89-.509 2.01-.616 3.86-.299l1.85.317s-4.04-1.12-3.41-1.33c.629-.207 1.4-.799 3.47.154l2.07.953s-3.26-2.05-5.32-2.98c-.453-.203.889-.468 2.6.097l1.71.564s-2.53-1.6-4.61-2.24-3.55-.65-2.95-1.1c.944-.71 2.88-.156 4.47.462 1.58.618 2.69.978 2.69.978s-3.14-1.98-3.38-2.19c-.96-.846 2.11-.39 3.22.279 1.62.975 2.56 1.86 2.55 1.55-.01-.314-.437-1.87-3.24-3.07-2.8-1.19-8.79-.395-8.02-.972.77-.576 3.25-.591 2.64-.791-.612-.2-4.17-1.14-2.61-1.23 1.56-.088 5.83 1.35 5.48.947-.354-.407-2.43-1.22-1.31-1.2 1.12.017 5.7 2 5.75 1.41.066-.767-2.14-1.82-2.88-1.94-1.2-.2-5.53.343-5.26.423-1.17-.347.459-1.18.459-1.18s-5.13-.15-4.36-.742 3.86-.377 3.49-.472c-.368-.095-3.41-1.48-2.42-1.44.99.043 1.83.707 4.8.76 2.97.054 4 .492 2.78.046s-4.26-1.76-2.91-1.54c1.35.217 5.14 1.48 5.77 1.27.629-.207-3.01-2.09-2.02-2.05.99.044 1.8 1.33 3.04 1.39 1.24.055-1.15-1.93.08-1.8 1.23.133 4.73 2.32 4.52 1.61-.218-.714-.282-2.05.433-1.39s1.91 1.65 1.91 1.65-.146-2.37.321-1.72c.251.354.771.964 1.09 1.4l.353-7.97 4.4.195-.353 7.97c.695-.392.987-.966 1.27-1.3.523-.613.26 1.74.26 1.74s1.26-.884 2.03-1.48c.77-.595.58.733.3 1.43-.278.692 3.4-1.18 4.64-1.2 1.24-.023-1.32 1.74-.081 1.8 1.24.055 2.16-1.16 3.15-1.11.99.044-2.8 1.6-2.19 1.86.608.262 4.49-.662 5.86-.758s-1.78.939-3.03 1.28c-1.25.336-.194-.009 2.77.201 2.97.21 3.86-.377 4.85-.333.99.044-2.16 1.16-2.53 1.22-.375.062 2.72.121 3.44.779.715.658-4.41.354-4.41.354"/><path id="a" d="M98.7 170a5.396 5.396 0 0 1-.088.344c.154-.156.28-.259.385-.329A2.434 2.434 0 0 1 98.7 170m-19.2-.852c-.1.002-.2 0-.297-.011.1.08.215.193.355.362a5.202 5.202 0 0 1-.058-.351m29.8-21c2.22.426-.936 1.6-.936 1.6 2.08.174-.27 1.22-.27 1.22 1.42.473-1.64 1.24-1.64 1.24.146.065.26.128.35.188.22.009.278.1.237.238.093.192-.08.347-.316.46a5.998 5.998 0 0 1-.376.373 7.701 7.701 0 0 1-.536.514c-.097.103-.174.176-.174.176 3.32-.755.506 1.38.506 1.38 2.24.486-1.2 1.56-1.2 1.56 3.2.593-.411 1.59-.411 1.59 2.09.092-1.32 1.55-1.32 1.55 2.82.319-.342 1.34-.342 1.34.518.408.193.522-.264.535a.282.282 0 0 1 .02.035c.059.06.084.148.022.222-.007.009-.016.016-.024.025a.883.883 0 0 1-.2.293c2.7-.303.411.95.411.95 2.77.123-.173 1.35-.173 1.35 1.74.335-.91 1.38-.91 1.38 1.66.847-1.54 1.41-1.54 1.41 1.51.389-.56 1.14-.56 1.14.233.119.32.23.312.335.07.037.138.078.205.127.115.083.113.252-.014.324a2.376 2.376 0 0 1-.707.263c.115.157.045.53.045.53 2.12-.45.964.913.964.913 1.53.067-.287 1.08-.287 1.08 1.31.602-1.58 1.13-1.58 1.13 1.41.444-.325.856-.325.856.431.389-.055.344-.208.323 1.68.249-.189 1.07-.189 1.07.725.26.067.539-.393.684.024.084.037.157.043.198.052.153.058.302.058.302 1.89-.46.155.823.155.823 1.69-.361-.73 1.38-.73 1.38 2.52-.813.83.689.83.689 1.91.03-.483 1.18-.483 1.18 1.26.708-.893.722-.893.722 1.22.598-.895.776-.895.776.816 1.01-.637.352-.637.352.631.839-.752.314-.944.238.055.256.045.566.039.687 0 .082-.004.136-.005.152 1.3-1.08.735.884.735.884 1.77.078-.132 1.59-.132 1.59 1.09.257-.537 1.09-.537 1.09 1.63.558-1.08.988-1.08.988.931.42-.4.469-.4.469 1.31.436-.758 1.1-.758 1.1.735.573-.219.8-.219.8.48.933-.652.412-1.04.225a2.23 2.23 0 0 0-.056.453l.001-.023c-.022.497-.419 1.06-.419 1.06 2.5.543-.407 1.44-.407 1.44 1 1.02-.677 1.05-.677 1.05 1.22 1.46-.39 1.23-.39 1.23.248.821-.666.132-.666.132-.023.122-.046.235-.051.343.005-.109-.008-.223-.02-.346 0 0-.968.606-.65-.19 0 0-1.61.09-.271-1.26 0 0-1.65-.18-.567-1.1 0 0-2.81-1.15-.274-1.47 0 0-.31-.596-.288-1.09l-.001.023c.008-.183-.03-.33-.051-.458-.407.152-1.63.569-1.07-.318 0 0-.923-.311-.14-.817 0 0-2-.845-.654-1.16 0 0-1.32-.167-.355-.502 0 0-2.66-.667-.986-1.08 0 0-1.55-.974-.438-1.13 0 0-1.76-1.68.01-1.6 0 0-.392-2.01.81-.816 0-.017.003-.071.01-.152.004-.121.022-.431.099-.681-.198.058-1.62.458-.92-.321 0 0-1.51.53-.602-.407 0 0-2.09-.365-.823-.852 0 0-2.14-.204-.825-.798 0 0-2.28-1.35-.377-1.21 0 0-1.55-1.65.888-.613 0 0-2.26-1.95-.605-1.44 0 0-1.61-1.43.227-.806 0 0 .019-.148.085-.295.009-.041.028-.112.06-.194-.445-.185-1.08-.52-.331-.716 0 0-1.79-.987-.093-1.09-.155.008-.643.009-.179-.34 0 0-1.7-.565-.248-.882 0 0-2.84-.78-1.47-1.26 0 0-1.72-1.16-.191-1.1 0 0-1.04-1.46 1.04-.823 0 0-.037-.38.092-.525a2.392 2.392 0 0 1-.681-.324c-.12-.083-.107-.251.014-.324.07-.043.143-.077.215-.108.003-.104.099-.208.342-.306 0 0-2-.926-.457-1.18 0 0-3.14-.847-1.4-1.54 0 0-2.55-1.27-.786-1.45 0 0-2.82-1.48-.053-1.36 0 0-2.17-1.45.494-.91a.884.884 0 0 1-.175-.31c-.007-.01-.015-.017-.021-.027-.055-.08-.022-.165.041-.219a.239.239 0 0 1 .024-.033c-.454-.053-.768-.196-.216-.556 0 0-3.06-1.29-.223-1.36 0 0-3.26-1.76-1.17-1.66 0 0-3.51-1.32-.268-1.62 0 0-3.34-1.37-1.06-1.66 0 0-2.61-2.37.625-1.33 0 0-.07-.08-.158-.191a7.744 7.744 0 0 1-.488-.56 6.222 6.222 0 0 1-.342-.403c-.224-.135-.383-.304-.274-.488-.03-.14.036-.227.257-.216.095-.052.214-.104.366-.156 0 0-2.98-1.03-1.53-1.38 0 0-2.25-1.25-.161-1.24 0 0-3.04-1.45-.791-1.68 0 0-1.61-1.05-.312-1.08 0 0-1.05-2.34 1.97-.487 0 0-.036-.056-.077-.134-.245-.253-.395-.446-.471-.593-.133-.165-.201-.291-.221-.387-.767-.52-1.68-1.27-.438-1.22 0 0-2.01-1.32.045-1.02 0 0-.79-2.49 1.72-.127 0 0-1.8-2.13-.206-1.44 0 0-.202-1.54 1.97.292 0 0 .24-1.32 1.8-.023 0 0-1.42-2.42 1.35-.043 0 0-.462-1.76 1.62.072 0 0 .521-1.62.813-.066 0 0 1.16-1.79.988.044 0 0 1.42-1.47.881.448 0 0 2.04-1.34 1.26.056 0 0 .82-.707 1-.381.03.01.056.025.076.048.026.031.046.065.071.097a.15.15 0 0 1 .073.038c.055.032.107.07.15.115.045.046.083.101.124.152-.339-.717-.393-1.26 1.2.117l.005-.022c-.009-.215-.013-1.62 1.59.586.007-.055.04-.147.061-.25.02-.124.115-.263.12-.369l.333-7.53 4.68.207-.333 7.53c-.004.106.042.251.051.376.013.105.01.197.012.253 1.79-2.05 1.66-.657 1.63-.444l.001.022c1.71-1.23 1.61-.695 1.2-.01.045-.047.088-.099.136-.14a.7.7 0 0 1 .16-.102.154.154 0 0 1 .076-.032c.028-.029.051-.06.08-.09a.168.168 0 0 1 .08-.04c.212-.31.965.467.965.467-.656-1.46 1.26.056 1.26.056-.363-1.96.918-.37.918-.37-.009-1.84.988.045.988.045.428-1.52.804.137.804.137 2.23-1.64 1.62.071 1.62.071 2.98-2.12 1.34.162 1.34.162 1.67-1.16 1.79.182 1.79.182 2.32-1.64 1.99-.117 1.99-.117 1.65-.542-.333 1.42-.333 1.42 2.71-2.13 1.7.278 1.7.278 2.08-.11-.045 1.02-.045 1.02 1.25.056.265.727-.544 1.18-.028.094-.108.213-.255.366-.089.14-.255.32-.521.55-.048.074-.088.126-.088.126 3.17-1.58 1.92.66 1.92.66 1.29.138-.406 1.05-.406 1.05"/><use id="b" xlink:href="#a" transform="translate(387 -96.4)" height="100%" width="100%"/><use id="h" xlink:href="#b" transform="translate(18.3 -18.3)" height="100%" width="100%"/><use id="d" xlink:href="#c" transform="translate(131 -31.5)" height="100%" width="100%"/><use id="e" xlink:href="#d" transform="matrix(1.05 0 0 .985 373 -113)" height="100%" width="100%"/><use id="f" xlink:href="#e" transform="translate(-318 96.6)" height="100%" width="100%"/><use id="g" xlink:href="#f" transform="matrix(.89 0 0 .89 222 -35.8)" height="100%" width="100%"/><use xlink:href="#g" transform="matrix(1.25 0 0 1.25 -207 -6.27)" height="100%" width="100%"/><use id="i" xlink:href="#h" transform="translate(-235 50.9)" height="100%" width="100%"/><use id="j" xlink:href="#i" transform="translate(-143 60)" height="100%" width="100%"/><use id="k" xlink:href="#j" transform="translate(88.9 -17.4)" height="100%" width="100%"/><use id="l" xlink:href="#k" transform="translate(-151 21.9)" height="100%" width="100%"/><use xlink:href="#l" transform="translate(353 -103)" height="100%" width="100%"/><path id="r" d="M312 94.6c-.04.171-.083.321-.112.415.198-.187.358-.312.493-.396a3.49 3.49 0 0 1-.38-.019m-24.7-1.09a3.262 3.262 0 0 1-.381-.015c.127.097.275.234.456.438a5.94 5.94 0 0 1-.075-.424m38.2-25.2c2.85.522-1.2 1.93-1.2 1.93 2.67.217-.343 1.47-.343 1.47 1.83.576-2.1 1.49-2.1 1.49.188.08.334.156.45.228.283.012.357.123.305.288.12.232-.102.418-.404.556a6.816 6.816 0 0 1-.482.447c-.228.23-.49.456-.686.62-.124.123-.222.211-.222.211 4.26-.9.654 1.66.654 1.66 2.88.594-1.54 1.88-1.54 1.88 4.11.727-.522 1.92-.522 1.92 2.69.12-1.68 1.87-1.68 1.87 3.62.394-.435 1.61-.435 1.61.666.494.249.631-.338.646a.32.32 0 0 1 .027.043c.074.072.107.179.028.268l-.03.03a1.06 1.06 0 0 1-.257.353c3.47-.356.532 1.15.532 1.15 3.56.158-.217 1.63-.217 1.63 2.24.41-1.16 1.66-1.16 1.66 2.14 1.03-1.97 1.7-1.97 1.7 1.94.475-.715 1.37-.715 1.37.3.144.412.28.404.405.09.046.178.096.263.154.147.101.145.304-.018.391a3.14 3.14 0 0 1-.906.315c.15.19.06.641.06.641 2.73-.537 1.24 1.1 1.24 1.1 1.96.087-.365 1.3-.365 1.3 1.69.731-2.02 1.36-2.02 1.36 1.82.541-.414 1.03-.414 1.03.555.471-.069.416-.266.39 2.15.305-.24 1.3-.24 1.3.933.316.09.65-.501.823.031.102.048.19.055.24.068.184.077.364.077.364 2.42-.55.202.995.202.995 2.17-.43-.933 1.67-.933 1.67 3.24-.974 1.07.835 1.07.835 2.45.043-.616 1.42-.616 1.42 1.62.86-1.14.87-1.14.87 1.56.725-1.15.934-1.15.934 1.05 1.23-.816.423-.816.423.813 1.01-.964.377-1.21.285.07.31.06.684.051.83 0 .1-.004.164-.005.184 1.67-1.3.947 1.07.947 1.07 2.27.101-.164 1.93-.164 1.93 1.4.314-.686 1.32-.686 1.32 2.09.68-1.38 1.19-1.38 1.19 1.2.51-.51.565-.51.565 1.68.531-.97 1.33-.97 1.33.945.695-.279.967-.279.967.62 1.13-.836.495-1.34.267-.04.152-.06.326-.07.547l.001-.027c-.026.6-.535 1.28-.535 1.28 3.2.664-.518 1.74-.518 1.74 1.29 1.23-.866 1.27-.866 1.27 1.57 1.77-.496 1.48-.496 1.48.321.992-.855.157-.855.157-.03.147-.06.283-.065.414.006-.13-.01-.27-.027-.419 0 0-1.24.728-.833-.232 0 0-2.07.103-.353-1.52 0 0-2.12-.223-.73-1.34 0 0-3.61-1.4-.358-1.78 0 0-.4-.72-.374-1.32v.027c.01-.22-.04-.399-.068-.553-.522.182-2.09.681-1.37-.387 0 0-1.19-.378-.183-.987 0 0-2.57-1.03-.844-1.41 0 0-1.69-.206-.457-.608 0 0-3.41-.815-1.27-1.31 0 0-1.99-1.18-.566-1.37 0 0-2.27-2.03.007-1.93 0 0-.51-2.43 1.04-.983 0-.02.003-.085.011-.184.004-.146.027-.52.125-.822-.254.07-2.08.548-1.18-.39 0 0-1.93.635-.776-.495 0 0-2.68-.448-1.06-1.03 0 0-2.75-.254-1.06-.967 0 0-2.94-1.64-.488-1.47 0 0-2-1.99 1.14-.737 0 0-2.9-2.36-.782-1.74 0 0-2.07-1.73.29-.973 0 0 .023-.178.107-.356.011-.049.036-.135.077-.234-.572-.224-1.38-.632-.427-.865 0 0-2.3-1.2-.123-1.31-.2.01-.825.01-.231-.41 0 0-2.18-.689-.321-1.07 0 0-3.64-.95-1.9-1.53 0 0-2.21-1.41-.248-1.33 0 0-1.33-1.77 1.33-.992 0 0-.049-.457.116-.634a3.15 3.15 0 0 1-.875-.394c-.154-.1-.138-.303.017-.39.09-.052.183-.093.276-.13.004-.126.126-.252.438-.369 0 0-2.57-1.13-.59-1.43 0 0-4.03-1.03-1.81-1.87 0 0-3.28-1.55-1.01-1.76 0 0-3.63-1.8-.073-1.64 0 0-2.79-1.76.632-1.1a1.055 1.055 0 0 1-.225-.375c-.01-.01-.02-.02-.028-.032-.07-.096-.029-.199.052-.265a.345.345 0 0 1 .03-.04c-.583-.066-.986-.239-.279-.673 0 0-3.93-1.57-.29-1.65 0 0-4.2-2.13-1.51-2.01 0 0-4.51-1.6-.35-1.96 0 0-4.29-1.67-1.37-2.01 0 0-3.36-2.87.797-1.6 0 0-.09-.096-.203-.23a10.17 10.17 0 0 1-.629-.678 7.229 7.229 0 0 1-.44-.488c-.288-.164-.493-.369-.353-.59-.038-.169.046-.274.33-.26.121-.062.273-.125.468-.188 0 0-3.83-1.26-1.96-1.67 0 0-2.89-1.52-.21-1.5 0 0-3.9-1.76-1.02-2.03 0 0-2.07-1.28-.405-1.3 0 0-1.36-2.83 2.52-.58 0 0-.045-.069-.099-.164-.315-.306-.508-.54-.606-.717-.17-.2-.259-.353-.285-.468-.986-.629-2.17-1.55-.566-1.47 0 0-2.59-1.6.055-1.24 0 0-1.02-3.01 2.2-.148 0 0-2.31-2.58-.269-1.74 0 0-.265-1.87 2.53.36 0 0 .302-1.59 2.31-.021 0 0-1.84-2.93 1.74-.047 0 0-.599-2.13 2.08.092 0 0 .664-1.95 1.04-.077 0 0 1.48-2.16 1.27.056 0 0 1.81-1.78 1.13.545 0 0 2.61-1.62 1.61.072 0 0 1.05-.851 1.29-.457.038.012.071.03.097.058.034.038.06.079.092.117a.197.197 0 0 1 .094.047c.071.04.138.085.193.14.058.055.107.121.16.183-.437-.868-.509-1.52 1.54.145l.006-.026c-.012-.26-.022-1.95 2.04.713.01-.067.05-.177.078-.302.025-.15.147-.318.152-.445l.403-9.09 6.01.266-.403 9.09c-.006.127.054.303.066.455.017.127.014.238.016.306 2.29-2.47 2.13-.788 2.09-.53.002.011 0 .018.002.027 2.19-1.48 2.06-.834 1.55-.008.058-.058.112-.12.174-.17a.886.886 0 0 1 .205-.121.204.204 0 0 1 .098-.039c.035-.035.065-.074.102-.108a.22.22 0 0 1 .102-.05c.273-.372 1.24.57 1.24.57-.847-1.77 1.61.07 1.61.07-.472-2.37 1.18-.441 1.18-.441-.018-2.23 1.27.056 1.27.056.544-1.83 1.03.169 1.03.169 2.86-1.98 2.08.092 2.08.092 3.81-2.55 1.72.201 1.72.201 2.14-1.39 2.3.226 2.3.226 2.98-1.97 2.55-.135 2.55-.135 2.11-.648-.422 1.71-.422 1.71 3.47-2.57 2.18.342 2.18.342 2.66-.127-.055 1.24-.055 1.24 1.6.07.343.879-.695 1.42-.036.113-.137.257-.326.441-.113.168-.326.384-.667.661-.06.09-.113.153-.113.153 4.06-1.9 2.46.802 2.46.802 1.66.173-.518 1.26-.518 1.26"/><use id="m" xlink:href="#c" transform="matrix(1.1 0 0 1.1 157 -66.9)" height="100%" width="100%"/><use id="n" xlink:href="#m" transform="translate(168 -50.6)" height="100%" width="100%"/><use xlink:href="#n" transform="translate(-223 61.9)" height="100%" width="100%"/><path id="o" d="M472 42.6s1.61 1.3.353 1.64c.289-.08-4.17-1.27-5.45-1.13-.777.086-3.19 1.27-3.21 2.31-.009.799 4.98-1.38 6.15-1.29 1.17.095-1.08.966-1.5 1.48-.413.51 4.2-.977 5.82-.694 1.61.283-2.2 1.17-2.86 1.38-.659.204 1.93.486 2.67 1.34.742.858-5.42-.853-8.47.458s-3.66 3.36-3.7 3.78c-.045.421 1.03-.677 2.82-1.82 1.23-.782 4.48-1.07 3.39-.034-.268.254-3.75 2.59-3.75 2.59s1.19-.368 2.91-1.03c1.72-.664 3.8-1.2 4.71-.148.577.67-.957.526-3.19 1.17-2.24.641-5.05 2.52-5.05 2.52l1.85-.578c1.85-.578 3.22-.079 2.72.146-2.26 1.03-5.87 3.44-5.87 3.44l2.26-1.06c2.26-1.06 3-.184 3.63.161.635.345-3.7 1.42-3.7 1.42l1.96-.23c1.96-.23 3.12.033 3.99.811.875.78-4.67-.207-6.28.885s-2.05 2.34-2.34 2.86c-.283.516 3.21-1.97 4.11-1.83.903.146-3.51 3.02-3.67 3.54-.153.522 2.14-1.28 4.64-2.01.562-.165.765.416-.428 1.21-.623.414-3.77 2.62-3.77 2.62l1.32-.47c1.32-.47 2.38-.953 3.15-.707.769.246-3.35 2.28-3.35 2.28.949-.112 1.97-.17 2.89.16.325.115 1.13.55.5.943-.281.176-.889.066-1.2.088l-1.12.083c-1.19.087-2.42.188-3.49.89a4.79 4.79 0 0 0-1.32 1.33c-.256.377-.941 1.59-.05 1.14.92-.465 3.53-1.11 2.98-.758-1.94 1.26-2.84 2.83-2.84 2.83s.486.448 2.6-.305c2.11-.752 2.76-.657 3.54-.517l-3.87 2.19s3.39-.167 4.38.828c.996.996 0 0-3.12-.032s-3.24.986-3.46 1.29c.092-.124 1.13.332 1.3.373.364.087.734.13 1.1.174.222.025 1.21.34.673.874-.105.105-.25.102-.38.093-.991-.065-1.99-.167-2.98-.027s-1.99.542-2.76 1.37a4.439 4.439 0 0 0-1.14 2.64c-.044.617.054.643.383.304.283-.29.513-.57.87-.712 1.19-.476 1.75-1.4 2.79-1.46 1.04-.06-1.91 2.14-2.32 2.54-.408.405 3.42-.906 4.31-.55.894.358-4.23 1.5-4.5 1.91-.093.139 1.27.215 1.4.223.367.024.762.043 1.11.197.133.058.268.122.374.244.059.068.205.485.229.494-1.92-.73-4.09-.367-5.85.942-.395.294-.597.54-.075.614.312.044.654-.025.968-.044.461-.028 1.34-.266 1.75.075.404.335-3.91 2.79-3.91 2.79s1.55-.037 2.97.132.758.456-.567 1.03c-1.33.576-4.54 2.65-4.83 3.27-.287.622 2.5-.735 3.26-.49.77.245-1.89 1.19-3.41 3.34-.482.68-.736 1.43-1.17 2.13-.374-.734-.56-1.51-.98-2.23-1.33-2.28-3.89-3.45-3.1-3.63.788-.177 3.44 1.42 3.21.776-.232-.645-3.25-3-4.52-3.69-1.27-.691-1.91-1.04-.474-1.08 1.43-.043 2.97.132 2.97.132s-4.08-2.82-3.65-3.12c.44-.303 1.29.01 1.75.08.311.047.646.146.961.129.526-.027.347-.29-.02-.618-1.64-1.46-3.76-2.01-5.74-1.46.024-.007.207-.41.272-.472.117-.112.256-.163.394-.21.36-.122.757-.106 1.12-.098.124.003 1.49.048 1.41-.098-.241-.434-5.24-2.03-4.32-2.31.922-.276 4.62 1.37 4.25.928-.37-.439-3.12-2.89-2.09-2.74 1.03.151 1.51 1.12 2.65 1.7.343.174.547.472.803.787.299.366.398.35.409-.269a4.479 4.479 0 0 0-.906-2.73c-.694-.894-1.65-1.38-2.63-1.61-.974-.227-1.97-.214-2.97-.236-.132-.003-.276-.012-.371-.127-.485-.579.525-.805.748-.81a9.21 9.21 0 0 0 1.11-.076c.175-.026 1.25-.39 1.33-.257-.197-.322-.223-1.35-3.33-1.59-3.11-.243-4.19.66-3.11-.243 1.08-.904 4.44-.438 4.44-.438l-3.66-2.53c.783-.071 1.44-.108 3.48.828s2.56.533 2.56.533-.754-1.65-2.58-3.07c-.511-.4 2.03.474 2.9 1.02.847.526.272-.742.05-1.14a4.769 4.769 0 0 0-1.2-1.44c-1-.794-2.22-1-3.4-1.2l-1.11-.182c-.31-.05-.927.006-1.19-.194-.593-.448.248-.81.582-.896.945-.246 1.95-.099 2.89.097 0 0-3.92-2.39-3.14-2.57.788-.177 1.8.397 3.08.982l1.27.585s-2.94-2.48-3.52-2.95c-1.12-.895-.865-1.46-.319-1.24 2.43.95 4.55 2.95 4.44 2.42-.106-.533-4.25-3.78-3.34-3.85.913-.066 4.17 2.72 3.93 2.18-.236-.54-.569-1.82-2.07-3.05-1.51-1.23-7.12-.738-6.18-1.44.941-.698 2.12-.858 4.05-.455l1.93.403s-4.22-1.46-3.56-1.74c.663-.288 1.48-1.1 3.63.16l2.15 1.26s-3.39-2.72-5.54-3.95c-.473-.267.938-.642 2.73.096l1.79.74s-2.64-2.13-4.81-2.96c-2.17-.837-3.71-.83-3.08-1.44 1-.972 3.02-.25 4.68.563 1.65.813 2.8 1.28 2.8 1.28s-3.27-2.64-3.51-2.91c-.995-1.13 2.22-.554 3.37.333 1.69 1.29 2.66 2.48 2.65 2.06-.007-.423-.434-2.52-3.35-4.09-2.92-1.58-9.21-.416-8.4-1.2.815-.788 3.42-.84 2.78-1.1-.639-.262-4.36-1.48-2.72-1.62 1.63-.139 6.1 1.75 5.73 1.21-.366-.545-2.53-1.61-1.36-1.6 1.17.008 5.95 2.62 6.01 1.83.08-1.04-2.22-2.43-2.99-2.58-1.26-.254-5.8.536-5.52.641-1.22-.453.497-1.6.497-1.6s-5.38-.133-4.56-.943c.816-.81 4.05-.56 3.67-.683-.384-.123-3.55-1.95-2.51-1.91 1.04.046 1.91.93 5.03.963 3.12.033 4.19.61 2.91.024-1.27-.585-4.45-2.31-3.03-2.04 1.42.274 5.37 1.93 6.04 1.64.663-.288-3.13-2.78-2.09-2.74 1.04.046 1.87 1.77 3.17 1.83 1.3.058-1.19-2.59.107-2.43 1.29.163 4.93 3.07 4.72 2.11-.218-.96-.267-2.77.474-1.89.74.882 1.98 2.21 1.98 2.21s-.12-3.2.36-2.32c.258.474.794 1.29 1.12 1.88l.476-10.8 4.61.204-.477 10.8c.734-.538 1.05-1.32 1.35-1.77.557-.834.25 2.35.25 2.35s1.34-1.21 2.15-2.02c.816-.813.598.981.296 1.92-.3.938 3.58-1.64 4.88-1.69 1.3-.048-1.41 2.37-.109 2.43 1.3.058 2.28-1.59 3.32-1.54 1.04.046-2.96 2.19-2.32 2.54.635.345 4.72-.954 6.16-1.1 1.44-.148-1.88 1.29-3.2 1.76s-.203-.01 2.91.234c3.11.243 4.05-.56 5.09-.515 1.04.046-2.28 1.59-2.67 1.68-.394.089 2.85.126 3.59 1 .741.88-4.63.536-4.63.536"/><use id="s" xlink:href="#o" transform="translate(-76.1 3.32)" height="100%" width="100%"/><use id="p" xlink:href="#l" transform="translate(337 -109)" height="100%" width="100%"/><use id="q" xlink:href="#p" transform="translate(-47.2 32)" height="100%" width="100%"/><use xlink:href="#q" transform="translate(-16.5 -17.2)" height="100%" width="100%"/><use xlink:href="#r" transform="translate(-25.8 9.24)" height="100%" width="100%"/><use xlink:href="#s" transform="matrix(1 0 0 .795 150 -13.5)" height="100%" width="100%"/><path d="M.393 165s266-53.9 266-55c0-1.13 42.6-25.5 42.6-25.5l158-35.9 124-44 6-4.22-597-.38z" fill-rule="evenodd" stroke="#000" stroke-width=".758"/><path d="M29.5 185a5.396 5.396 0 0 1-.088.344c.154-.156.28-.259.385-.329A2.434 2.434 0 0 1 29.5 185m-19.2-.852c-.1.002-.2 0-.296-.011.098.08.214.193.354.362a5.202 5.202 0 0 1-.058-.351m29.8-21c2.22.426-.936 1.6-.936 1.6 2.08.174-.27 1.22-.27 1.22 1.42.473-1.64 1.24-1.64 1.24.146.065.26.128.35.188.22.009.278.1.237.238.093.192-.08.347-.316.46a5.998 5.998 0 0 1-.376.373 7.701 7.701 0 0 1-.536.514c-.097.103-.174.176-.174.176 3.32-.755.506 1.38.506 1.38 2.24.486-1.2 1.56-1.2 1.56 3.2.593-.411 1.59-.411 1.59 2.09.092-1.32 1.55-1.32 1.55 2.82.319-.342 1.34-.342 1.34.518.408.193.522-.264.535a.282.282 0 0 1 .02.035c.059.06.084.148.022.222-.007.009-.016.016-.024.025a.883.883 0 0 1-.2.293c2.7-.303.411.95.411.95 2.77.123-.173 1.35-.173 1.35 1.74.335-.91 1.38-.91 1.38 1.66.847-1.54 1.41-1.54 1.41 1.51.389-.56 1.14-.56 1.14.233.119.32.23.312.335.07.037.138.078.205.127.115.083.113.252-.014.324a2.376 2.376 0 0 1-.707.263c.115.157.045.53.045.53 2.12-.45.964.913.964.913 1.53.067-.287 1.08-.287 1.08 1.31.602-1.58 1.13-1.58 1.13 1.41.444-.325.856-.325.856.431.389-.055.344-.208.323 1.68.249-.189 1.07-.189 1.07.725.26.067.539-.393.684.024.084.037.157.043.198.052.153.058.302.058.302 1.89-.46.155.823.155.823 1.69-.361-.73 1.38-.73 1.38 2.52-.813.83.689.83.689 1.91.03-.483 1.18-.483 1.18 1.26.708-.893.722-.893.722 1.22.598-.895.776-.895.776.816 1.01-.637.352-.637.352.631.839-.752.314-.944.238.055.256.045.566.039.687 0 .082-.004.136-.005.152 1.3-1.08.735.884.735.884 1.77.078-.132 1.59-.132 1.59 1.09.257-.537 1.09-.537 1.09 1.63.558-1.08.988-1.08.988.93.42-.4.469-.4.469 1.31.436-.758 1.1-.758 1.1.735.573-.22.8-.22.8.48.933-.651.412-1.04.225a2.23 2.23 0 0 0-.055.453v-.023c-.021.497-.418 1.06-.418 1.06 2.5.543-.407 1.44-.407 1.44 1 1.02-.677 1.05-.677 1.05 1.22 1.46-.39 1.23-.39 1.23.248.821-.666.132-.666.132-.024.122-.047.235-.052.343a2.334 2.334 0 0 0-.02-.346s-.968.606-.649-.19c0 0-1.61.09-.272-1.26 0 0-1.65-.18-.567-1.1 0 0-2.81-1.15-.274-1.47 0 0-.31-.596-.288-1.09v.023c.007-.183-.03-.33-.052-.458-.407.152-1.63.569-1.07-.318 0 0-.923-.311-.14-.817 0 0-2-.845-.654-1.16 0 0-1.32-.167-.355-.502 0 0-2.66-.667-.986-1.08 0 0-1.55-.974-.438-1.13 0 0-1.76-1.68.01-1.6 0 0-.392-2.01.811-.816 0-.017.002-.071.01-.152a2.88 2.88 0 0 1 .098-.681c-.198.058-1.62.458-.919-.321 0 0-1.51.53-.603-.407 0 0-2.09-.365-.823-.852 0 0-2.14-.204-.825-.798 0 0-2.28-1.35-.377-1.21 0 0-1.55-1.65.888-.613 0 0-2.26-1.95-.605-1.44 0 0-1.61-1.43.227-.806 0 0 .02-.148.085-.295.01-.041.028-.112.06-.194-.445-.185-1.08-.52-.33-.716 0 0-1.79-.987-.094-1.09-.155.008-.643.009-.179-.34 0 0-1.7-.565-.248-.882 0 0-2.84-.78-1.47-1.26 0 0-1.72-1.16-.19-1.1 0 0-1.04-1.46 1.04-.823 0 0-.038-.38.091-.525a2.392 2.392 0 0 1-.68-.324c-.12-.083-.108-.251.013-.324.07-.043.143-.077.215-.108.003-.104.1-.208.342-.306 0 0-2-.926-.457-1.18 0 0-3.14-.847-1.4-1.54 0 0-2.55-1.27-.786-1.45 0 0-2.82-1.48-.052-1.36 0 0-2.17-1.45.494-.91a.884.884 0 0 1-.175-.31c-.007-.01-.016-.017-.022-.027-.055-.08-.022-.165.042-.219a.278.278 0 0 1 .023-.033c-.454-.053-.768-.196-.216-.556 0 0-3.06-1.29-.223-1.36 0 0-3.26-1.76-1.17-1.66 0 0-3.51-1.32-.268-1.62 0 0-3.34-1.37-1.06-1.66 0 0-2.61-2.37.625-1.33 0 0-.07-.08-.158-.191a7.744 7.744 0 0 1-.488-.56 6.222 6.222 0 0 1-.342-.403c-.224-.135-.383-.304-.274-.488-.03-.14.036-.227.257-.216.095-.052.214-.104.366-.156 0 0-2.98-1.03-1.53-1.38 0 0-2.25-1.25-.16-1.24 0 0-3.04-1.45-.792-1.68 0 0-1.61-1.05-.312-1.08 0 0-1.05-2.34 1.97-.487 0 0-.035-.056-.077-.134-.245-.253-.395-.446-.47-.593-.134-.165-.202-.291-.222-.387-.767-.52-1.68-1.27-.438-1.22 0 0-2.01-1.32.046-1.02 0 0-.79-2.49 1.72-.127 0 0-1.8-2.13-.206-1.44 0 0-.202-1.54 1.97.292 0 0 .239-1.32 1.8-.023 0 0-1.42-2.42 1.35-.043 0 0-.462-1.76 1.62.072 0 0 .52-1.62.813-.066 0 0 1.16-1.79.988.044 0 0 1.42-1.47.88.448 0 0 2.04-1.34 1.26.056 0 0 .82-.707 1-.381.03.01.056.025.076.048.026.031.047.065.072.097a.15.15 0 0 1 .073.038c.055.032.107.07.15.115.044.046.083.101.124.152-.34-.717-.393-1.26 1.2.117l.005-.022c-.01-.215-.014-1.62 1.59.586.007-.055.039-.147.06-.25.02-.124.116-.263.12-.369l.334-7.53 4.68.207-.333 7.53c-.005.106.042.251.05.376.013.105.01.197.012.253 1.79-2.05 1.66-.657 1.63-.444l.001.022c1.71-1.23 1.61-.695 1.2-.01.046-.047.088-.099.136-.14a.7.7 0 0 1 .16-.102.154.154 0 0 1 .077-.032c.027-.029.05-.06.079-.09a.168.168 0 0 1 .08-.04c.212-.31.965.467.965.467-.656-1.46 1.26.056 1.26.056-.363-1.96.918-.37.918-.37-.009-1.84.988.045.988.045.428-1.52.804.137.804.137 2.23-1.64 1.62.071 1.62.071 2.98-2.12 1.34.162 1.34.162 1.67-1.16 1.79.182 1.79.182 2.32-1.64 1.99-.117 1.99-.117 1.65-.542-.333 1.42-.333 1.42 2.71-2.13 1.7.278 1.7.278 2.08-.11-.045 1.02-.045 1.02 1.25.056.265.727-.544 1.18-.028.094-.108.213-.255.366-.088.14-.255.32-.52.55-.049.074-.09.126-.09.126 3.17-1.58 1.92.66 1.92.66 1.29.138-.405 1.05-.405 1.05"/><use xlink:href="#p" transform="translate(175 -22.1)" height="100%" width="100%"/></g></svg>