<svg xmlns:rdf="http://www.w3.org/1999/02/22-rdf-syntax-ns#" xmlns="http://www.w3.org/2000/svg" xml:space="preserve" height="265" viewBox="0 0 747.97375 265.21112" width="748" version="1.1" xmlns:cc="http://creativecommons.org/ns#" xmlns:xlink="http://www.w3.org/1999/xlink" xmlns:dc="http://purl.org/dc/elements/1.1/"><g transform="matrix(1.25 0 0 -1.25 .475 265)"><path d="m81.5 148c-1.8 0.781-3.45 1.54-4.98 2.51 2.36-0.137 4 0.141 4.13 0.147 0.166 0.007-6.51 1.76-8.62 3.91 3.23-1.28 4.75-1.01 6.75-0.404-3.87 1.06-8.87 4.64-8.86 4.63 3.63-1 6.14 0.663 6.14 0.663s-5.06 0.803-7.98 3.07c3.61-1.12 4.23-0.597 5.66 0.0174-2.88 0.981-5.06 2.11-6.17 3.91 0.905-0.89 2.19-0.679 3.34-0.412-1.55 0.48-2.09 1.02-2.98 1.81 1.99-0.538 4.88-0.174 4.72-0.156-1.83 0.195-3.45 0.621-5.98 2.19 2.68-0.601 5.26-0.859 6.54 0.154-2.06 0.284-6.21 1.67-6.95 2.93 1.79-0.207 4.38 0.214 4.38 0.214-2.89 0.739-5.23 1.93-6.72 3.33 1.41-0.688 3-0.618 3.87-0.374-5.08 1.88-6.97 7.93-7.96 11.9-0.636-4-1.98-10.2-6.88-12.5 0.894-0.165 2.48-0.0951 3.82 0.715-1.37-1.53-3.59-2.92-6.4-3.91 0 0 2.62-0.19 4.38 0.174-0.626-1.32-4.64-3.07-6.67-3.54 1.37-0.895 3.92-0.41 6.53 0.425-2.38-1.79-3.96-2.36-5.76-2.71-0.162-0.0319 2.75-0.139 4.69 0.573-0.813-0.866-1.31-1.45-2.81-2.07 1.17-0.165 2.46-0.261 3.29 0.705-0.951-1.89-3.02-3.21-5.8-4.44 1.49-0.485 2.14-0.956 5.64 0.483-2.71-2.51-7.68-3.76-7.68-3.76s2.65-1.44 6.18-0.117c0.0118 0.005-4.65-4-8.41-5.4 2.04-0.424 3.59-0.561 6.69 1-1.91-2.33-8.4-4.66-8.24-4.65 0.131 0.006 1.79-0.126 4.13 0.219-1.44-1.1-3.02-2-4.74-2.94 1.14-0.616 3.35-0.334 4.63 0.007-1.12-1.03-3.01-1.56-4.42-2.04 3.32-2.37 10.3-3.33 17.6-2.99l0.31-6.99 4.74 0.21-0.31 6.99c6.95 0.291 14.1 1.88 17.2 4.53-1.45 0.357-3.37 0.719-4.58 1.64 1.3-0.227 3.47-0.315 4.55 0.4"/><path id="c" d="m53 161s1.55 0.977 0.352 1.22c0.275-0.056-3.99-0.979-5.2-0.886-0.74 0.0567-3.03 0.909-3.04 1.68-0.0015 0.592 4.74-0.977 5.85-0.896 1.11 0.0815-1.02 0.706-1.41 1.08-0.389 0.374 4-0.684 5.54-0.459s-2.09 0.847-2.71 0.992c-0.626 0.145 1.84 0.379 2.56 1.02 0.716 0.643-5.18-0.683-8.07 0.259-2.89 0.943-3.46 2.46-3.5 2.77-0.0385 0.312 0.972-0.492 2.68-1.32 1.17-0.568 4.26-0.75 3.23 0.007-0.253 0.186-3.56 1.88-3.56 1.88s1.13-0.261 2.76-0.737 3.61-0.856 4.49-0.0652c0.556 0.501-0.907 0.381-3.04 0.834-2.13 0.454-4.79 1.82-4.79 1.82l1.75-0.411c1.75-0.411 3.07-0.0282 2.6 0.134-2.14 0.74-5.57 2.49-5.57 2.49l2.14-0.767c2.14-0.767 2.86-0.108 3.47 0.154 0.608 0.262-3.52 1.02-3.52 1.02l1.87-0.152c1.87-0.152 2.97 0.0534 3.82 0.639 0.842 0.585-4.46-0.197-5.98 0.597s-1.94 1.72-2.2 2.1c-0.265 0.38 3.04-1.43 3.9-1.32 0.863 0.116-3.32 2.2-3.46 2.59-0.141 0.386 2.03-0.93 4.4-1.45 0.535-0.117 0.733 0.316-0.396 0.892-0.59 0.301-3.57 1.91-3.57 1.91l1.25-0.336c1.26-0.336 2.26-0.683 3-0.494 0.736 0.19-3.17 1.66-3.17 1.66 0.904-0.0739 1.87-0.107 2.75 0.145 0.311 0.089 1.08 0.418 0.486 0.704-0.266 0.128-0.848 0.0401-1.15 0.0539-0.357 0.0167-0.713 0.0339-1.07 0.0506-1.13 0.0535-2.31 0.116-3.32 0.627-0.474 0.238-0.899 0.572-1.25 0.973-0.24 0.277-0.882 1.17-0.0371 0.845 0.874-0.336 3.35-0.79 2.84-0.533-1.84 0.915-2.68 2.07-2.68 2.07s0.468 0.336 2.48-0.201c2.01-0.538 2.63-0.461 3.37-0.35l-3.67 1.59s3.23-0.0919 4.19 0.655c0.959 0.747 0 0-2.97-0.0534s-3.08 0.7-3.29 0.923c0.0864-0.0911 1.08 0.257 1.24 0.289 0.348 0.0679 0.702 0.104 1.05 0.139 0.212 0.0212 1.15 0.263 0.65 0.654-0.0993 0.077-0.237 0.0736-0.362 0.0657-0.946-0.0578-1.9-0.143-2.84-0.0481-0.943 0.0942-1.89 0.383-2.62 0.99-0.572 0.478-1.01 1.19-1.07 1.94-0.0366 0.457 0.0572 0.477 0.368 0.229 0.267-0.213 0.484-0.418 0.823-0.52 1.13-0.341 1.66-1.02 2.65-1.06 0.993-0.0343-1.81 1.56-2.19 1.86-0.385 0.296 3.25-0.639 4.11-0.366 0.856 0.273-4.02 1.08-4.28 1.38-0.0876 0.101 1.22 0.17 1.34 0.178 0.35 0.0215 0.727 0.0392 1.06 0.157 0.127 0.0443 0.257 0.0928 0.359 0.184 0.0571 0.051 0.2 0.361 0.223 0.369-1.84-0.559-3.9-0.31-5.57 0.643-0.374 0.214-0.564 0.395-0.0656 0.454 0.298 0.0356 0.624-0.0124 0.923-0.0235 0.439-0.0165 1.27-0.184 1.67 0.072 0.389 0.252-3.71 2.03-3.71 2.03s1.48-0.0127 2.84 0.126c1.36 0.138 0.727 0.345-0.531 0.76-1.26 0.414-4.3 1.92-4.57 2.38-0.268 0.458 2.37-0.521 3.11-0.332 0.735 0.189-1.79 0.861-3.22 2.44-0.453 0.499-0.688 1.06-1.1 1.57-0.364-0.548-0.549-1.12-0.955-1.66-1.29-1.7-3.74-2.59-2.99-2.72 0.75-0.123 3.29 1.09 3.07 0.606-0.227-0.48-3.13-2.25-4.34-2.78-1.22-0.524-1.83-0.786-0.462-0.804 1.36-0.0178 2.84 0.126 2.84 0.126s-3.92-2.13-3.51-2.35c0.417-0.221 1.23 0.0204 1.67 0.076 0.297 0.0376 0.618 0.114 0.917 0.105 0.501-0.0147 0.328-0.212-0.0254-0.458-1.58-1.1-3.61-1.53-5.49-1.13 0.0236-0.005 0.194-0.302 0.255-0.347 0.11-0.0819 0.243-0.119 0.374-0.152 0.344-0.0872 0.721-0.0715 1.07-0.062 0.119 0.003 1.42 0.0494 1.35-0.0591-0.233-0.324-5.02-1.55-4.14-1.75 0.877-0.196 4.42 1.06 4.06 0.728-0.357-0.329-3-2.17-2.02-2.05 0.987 0.122 1.45 0.847 2.55 1.29 0.329 0.132 0.526 0.355 0.774 0.591 0.288 0.274 0.383 0.263 0.387-0.196 0.0066-0.756-0.363-1.5-0.89-2.03-0.671-0.669-1.59-1.04-2.52-1.22-0.931-0.178-1.88-0.177-2.83-0.203-0.126-0.004-0.263-0.012-0.355-0.0974-0.468-0.434 0.493-0.592 0.706-0.594 0.353-0.004 0.709-0.009 1.06-0.0456 0.167-0.0173 1.19-0.276 1.26-0.178-0.191-0.24-0.226-1-3.19-1.21-2.97-0.21-3.99 0.45-2.97-0.21s4.23-0.283 4.23-0.283l-3.52-1.91c0.746-0.0452 1.37-0.0663 3.33 0.647 1.95 0.713 2.45 0.419 2.45 0.419s-0.735-1.23-2.49-2.3c-0.491-0.301 1.94 0.37 2.78 0.782 0.813 0.398 0.253-0.547 0.0378-0.844-0.311-0.43-0.705-0.8-1.16-1.08-0.966-0.598-2.13-0.765-3.25-0.918-0.354-0.0482-0.707-0.0968-1.06-0.145-0.297-0.0403-0.884-0.005-1.14-0.155-0.57-0.337 0.229-0.597 0.546-0.659 0.899-0.173 1.86-0.0545 2.76 0.0991 0 0-3.76-1.81-3.01-1.94 0.75-0.123 1.72 0.312 2.94 0.757l1.22 0.446s-2.83-1.87-3.39-2.22c-1.07-0.674-0.839-1.09-0.316-0.924 2.32 0.728 4.37 2.23 4.26 1.83-0.107-0.396-4.09-2.84-3.22-2.88 0.87-0.0397 4 2.06 3.77 1.65-0.23-0.402-0.56-1.36-2.01-2.28-1.45-0.926-6.79-0.614-5.9-1.12 0.891-0.509 2.01-0.616 3.86-0.299l1.85 0.317s-4.04-1.12-3.41-1.33c0.629-0.207 1.4-0.799 3.47 0.154l2.07 0.953s-3.26-2.05-5.32-2.98c-0.453-0.203 0.889-0.468 2.6 0.0965l1.71 0.564s-2.53-1.6-4.61-2.24-3.55-0.649-2.95-1.1c0.944-0.71 2.88-0.156 4.47 0.462 1.58 0.618 2.69 0.978 2.69 0.978s-3.14-1.98-3.38-2.19c-0.96-0.846 2.11-0.39 3.22 0.279 1.62 0.975 2.56 1.86 2.55 1.55-0.0105-0.314-0.437-1.87-3.24-3.07-2.8-1.19-8.79-0.395-8.02-0.972 0.77-0.576 3.25-0.591 2.64-0.791-0.612-0.2-4.17-1.14-2.61-1.23 1.56-0.0877 5.83 1.35 5.48 0.947-0.354-0.407-2.43-1.22-1.31-1.2 1.12 0.0172 5.7 2 5.75 1.41 0.0658-0.767-2.14-1.82-2.88-1.94-1.2-0.2-5.53 0.343-5.26 0.423-1.17-0.347 0.459-1.18 0.459-1.18s-5.13-0.15-4.36-0.742 3.86-0.377 3.49-0.472c-0.368-0.0946-3.41-1.48-2.42-1.44 0.99 0.0438 1.83 0.707 4.8 0.761 2.97 0.0535 4 0.491 2.78 0.0455s-4.26-1.76-2.91-1.54c1.35 0.217 5.14 1.48 5.77 1.27 0.629-0.207-3.01-2.09-2.02-2.05 0.99 0.0439 1.8 1.33 3.04 1.39 1.24 0.0548-1.15-1.93 0.0796-1.8 1.23 0.133 4.73 2.32 4.52 1.61-0.217-0.714-0.281-2.05 0.434-1.39s1.91 1.65 1.91 1.65-0.146-2.37 0.321-1.72c0.251 0.354 0.771 0.964 1.09 1.4l0.353-7.97 4.4 0.195-0.353 7.97c0.695-0.392 0.987-0.966 1.27-1.3 0.523-0.613 0.26 1.74 0.26 1.74s1.26-0.884 2.03-1.48c0.77-0.595 0.579 0.733 0.3 1.43-0.278 0.692 3.4-1.18 4.64-1.2 1.24-0.0233-1.32 1.74-0.0816 1.8 1.24 0.0548 2.16-1.16 3.15-1.11 0.99 0.0439-2.8 1.6-2.19 1.86 0.608 0.262 4.49-0.662 5.86-0.758s-1.78 0.939-3.03 1.28c-1.25 0.336-0.194-0.009 2.77 0.201 2.97 0.21 3.86-0.377 4.85-0.333 0.99 0.0439-2.16 1.16-2.53 1.22-0.375 0.0617 2.72 0.121 3.44 0.779 0.715 0.658-4.41 0.354-4.41 0.354"/><path id="s" d="m98.7 170c-0.0312 0.141-0.0656 0.266-0.0885 0.344 0.154-0.156 0.28-0.259 0.385-0.329-0.0982 0.002-0.197-0.005-0.296-0.0151m-19.2-0.852c-0.0996 0.002-0.199-0.00079-0.296-0.0111 0.0986 0.0794 0.214 0.193 0.354 0.362-0.016-0.0797-0.0392-0.207-0.0577-0.351m29.8-21c2.22 0.426-0.936 1.6-0.936 1.6 2.08 0.174-0.27 1.22-0.27 1.22 1.42 0.473-1.64 1.24-1.64 1.24 0.146 0.0652 0.26 0.128 0.35 0.188 0.221 0.009 0.278 0.101 0.237 0.238 0.0929 0.192-0.0806 0.347-0.316 0.461-0.116 0.127-0.249 0.256-0.376 0.372-0.178 0.191-0.382 0.379-0.536 0.514-0.0969 0.103-0.174 0.176-0.174 0.176 3.32-0.755 0.506 1.38 0.506 1.38 2.24 0.486-1.2 1.56-1.2 1.56 3.2 0.593-0.411 1.59-0.411 1.59 2.09 0.0927-1.32 1.55-1.32 1.55 2.82 0.319-0.342 1.34-0.342 1.34 0.518 0.408 0.193 0.522-0.264 0.535 0.008 0.0116 0.0148 0.0231 0.0208 0.0352 0.058 0.0596 0.0833 0.148 0.0215 0.222-0.007 0.009-0.0159 0.0159-0.0238 0.0246-0.0404 0.106-0.118 0.21-0.201 0.293 2.7-0.303 0.412 0.95 0.412 0.95 2.77 0.123-0.173 1.35-0.173 1.35 1.74 0.335-0.911 1.38-0.911 1.38 1.66 0.847-1.54 1.41-1.54 1.41 1.51 0.389-0.56 1.14-0.56 1.14 0.234 0.119 0.32 0.231 0.313 0.335 0.0698 0.0377 0.138 0.0786 0.205 0.127 0.115 0.0833 0.113 0.252-0.0143 0.324-0.226 0.128-0.463 0.214-0.707 0.263 0.115 0.157 0.045 0.531 0.045 0.531 2.12-0.45 0.964 0.912 0.964 0.912 1.53 0.0677-0.287 1.08-0.287 1.08 1.31 0.602-1.58 1.13-1.58 1.13 1.41 0.444-0.325 0.856-0.325 0.856 0.431 0.389-0.0546 0.344-0.208 0.323 1.68 0.249-0.189 1.07-0.189 1.07 0.725 0.26 0.0674 0.539-0.393 0.684 0.0244 0.0841 0.0374 0.157 0.0428 0.198 0.0524 0.153 0.0584 0.302 0.0584 0.302 1.89-0.46 0.155 0.823 0.155 0.823 1.69-0.361-0.73 1.38-0.73 1.38 2.52-0.813 0.83 0.689 0.83 0.689 1.91 0.0302-0.483 1.18-0.483 1.18 1.26 0.708-0.893 0.722-0.893 0.722 1.22 0.598-0.895 0.776-0.895 0.776 0.816 1.01-0.637 0.352-0.637 0.352 0.631 0.839-0.752 0.314-0.944 0.238 0.0547 0.256 0.0453 0.566 0.0385 0.687-0.000423 0.0819-0.0035 0.136-0.0045 0.152 1.3-1.08 0.735 0.884 0.735 0.884 1.77 0.0784-0.132 1.59-0.132 1.59 1.09 0.257-0.537 1.09-0.537 1.09 1.63 0.558-1.08 0.988-1.08 0.988 0.931 0.42-0.4 0.469-0.4 0.469 1.31 0.436-0.758 1.1-0.758 1.1 0.735 0.573-0.219 0.801-0.219 0.801 0.48 0.932-0.652 0.411-1.04 0.224-0.0323 0.126-0.0477 0.27-0.0558 0.453l0.000987-0.0223c-0.022 0.497-0.419 1.06-0.419 1.06 2.5 0.543-0.407 1.44-0.407 1.44 1 1.02-0.677 1.05-0.677 1.05 1.22 1.46-0.39 1.23-0.39 1.23 0.248 0.821-0.666 0.132-0.666 0.132-0.0234 0.122-0.0468 0.235-0.0516 0.343 0.0048-0.109-0.0074-0.223-0.02-0.346 0 0-0.968 0.606-0.649-0.19 0 0-1.61 0.0898-0.272-1.26 0 0-1.65-0.18-0.567-1.1 0 0-2.81-1.15-0.274-1.47 0 0-0.31-0.596-0.288-1.09l-0.000986 0.0223c0.0081-0.183-0.0301-0.33-0.0512-0.458-0.407 0.152-1.63 0.569-1.07-0.318 0 0-0.923-0.311-0.14-0.817 0 0-2-0.845-0.654-1.16 0 0-1.32-0.167-0.355-0.502 0 0-2.66-0.667-0.986-1.08 0 0-1.55-0.974-0.438-1.13 0 0-1.76-1.68 0.0099-1.6 0 0-0.392-2.01 0.811-0.816 0.000357-0.0162 0.0024-0.0706 0.0092-0.152 0.0039-0.121 0.022-0.431 0.0991-0.681-0.198 0.0583-1.62 0.458-0.919-0.321 0 0-1.51 0.531-0.603-0.407 0 0-2.09-0.365-0.823-0.852 0 0-2.14-0.204-0.825-0.798 0 0-2.28-1.35-0.377-1.21 0 0-1.55-1.65 0.888-0.613 0 0-2.26-1.95-0.605-1.44 0 0-1.61-1.43 0.227-0.806 0 0 0.0192-0.148 0.0849-0.295 0.009-0.0408 0.0284-0.112 0.0602-0.194-0.445-0.185-1.08-0.52-0.331-0.716 0 0-1.79-0.987-0.0929-1.09-0.155 0.008-0.643 0.009-0.179-0.34 0 0-1.7-0.565-0.248-0.882 0 0-2.84-0.779-1.47-1.26 0 0-1.72-1.16-0.191-1.1 0 0-1.04-1.46 1.04-0.823 0 0-0.037-0.379 0.0918-0.525-0.238-0.0701-0.467-0.177-0.681-0.324-0.12-0.0829-0.107-0.251 0.0143-0.324 0.0704-0.0423 0.143-0.077 0.215-0.108 0.0028-0.104 0.0987-0.208 0.342-0.306 0 0-2-0.926-0.457-1.18 0 0-3.14-0.847-1.4-1.54 0 0-2.55-1.27-0.786-1.45 0 0-2.82-1.48-0.0529-1.36 0 0-2.17-1.45 0.494-0.91-0.0761-0.0907-0.144-0.201-0.175-0.31-0.0072-0.009-0.0151-0.0169-0.0216-0.0266-0.0546-0.0793-0.0219-0.165 0.0415-0.219 0.0066-0.0116 0.0147-0.0225 0.0235-0.0332-0.454-0.0532-0.768-0.196-0.216-0.556 0 0-3.06-1.29-0.223-1.36 0 0-3.26-1.76-1.17-1.66 0 0-3.51-1.32-0.268-1.62 0 0-3.34-1.37-1.06-1.66 0 0-2.61-2.37 0.625-1.33 0 0-0.0701-0.0796-0.158-0.191-0.141-0.148-0.327-0.353-0.488-0.56-0.117-0.127-0.237-0.267-0.342-0.403-0.224-0.135-0.383-0.304-0.274-0.488-0.0292-0.139 0.0364-0.227 0.257-0.216 0.095-0.0517 0.214-0.104 0.366-0.156 0 0-2.98-1.03-1.53-1.38 0 0-2.25-1.25-0.161-1.24 0 0-3.04-1.45-0.791-1.68 0 0-1.61-1.05-0.312-1.08 0 0-1.05-2.34 1.97-0.487 0 0-0.0354-0.056-0.0767-0.134-0.245-0.253-0.395-0.446-0.471-0.593-0.133-0.165-0.201-0.291-0.221-0.387-0.767-0.519-1.68-1.27-0.438-1.22 0 0-2.01-1.32 0.0453-1.02 0 0-0.79-2.49 1.72-0.127 0 0-1.8-2.13-0.206-1.44 0 0-0.202-1.54 1.97 0.292 0 0 0.239-1.32 1.8-0.0226 0 0-1.42-2.42 1.35-0.0429 0 0-0.462-1.76 1.62 0.0717 0 0 0.521-1.62 0.813-0.0657 0 0 1.16-1.79 0.988 0.0438 0 0 1.42-1.47 0.881 0.448 0 0 2.04-1.34 1.26 0.0557 0 0 0.819-0.707 1-0.381 0.0291 0.0103 0.0555 0.0252 0.0754 0.0485 0.026 0.0308 0.0466 0.0648 0.0715 0.0963 0.0276 0.005 0.0508 0.0189 0.073 0.0386 0.0552 0.0321 0.107 0.0697 0.15 0.115 0.0449 0.046 0.0832 0.101 0.124 0.152-0.339-0.717-0.393-1.26 1.2 0.117 0.0017-0.007 0.0028-0.0129 0.005-0.0218-0.0089-0.215-0.0131-1.62 1.59 0.586 0.0068-0.0553 0.0393-0.147 0.0612-0.25 0.0199-0.124 0.115-0.263 0.12-0.369l0.333-7.53 4.68 0.207-0.333 7.53c-0.0047 0.106 0.0419 0.251 0.0508 0.376 0.0127 0.105 0.01 0.197 0.0119 0.253 1.79-2.05 1.66-0.657 1.63-0.444 0.0014 0.009 0.000052 0.0151 0.0012 0.0221 1.71-1.23 1.61-0.695 1.2-0.0101 0.045-0.0478 0.0877-0.0989 0.136-0.141 0.0473-0.0408 0.102-0.0737 0.16-0.101 0.0239-0.0177 0.0482-0.0289 0.0761-0.032 0.0276-0.0291 0.0507-0.0612 0.0794-0.0896 0.0219-0.0215 0.0495-0.0342 0.0794-0.0416 0.213-0.309 0.966 0.468 0.966 0.468-0.656-1.46 1.26 0.0557 1.26 0.0557-0.363-1.96 0.918-0.369 0.918-0.369-0.0089-1.84 0.988 0.0438 0.988 0.0438 0.428-1.52 0.804 0.137 0.804 0.137 2.23-1.64 1.62 0.0717 1.62 0.0717 2.98-2.12 1.34 0.162 1.34 0.162 1.67-1.16 1.79 0.182 1.79 0.182 2.32-1.64 1.99-0.117 1.99-0.117 1.65-0.542-0.333 1.42-0.333 1.42 2.71-2.13 1.7 0.278 1.7 0.278 2.08-0.111-0.0453 1.02-0.0453 1.02 1.25 0.0552 0.265 0.727-0.544 1.18-0.0283 0.0932-0.108 0.213-0.255 0.366-0.0884 0.139-0.255 0.319-0.521 0.549-0.0477 0.0744-0.0882 0.127-0.0882 0.127 3.17-1.58 1.92 0.659 1.92 0.659 1.29 0.139-0.406 1.05-0.406 1.05"/><use id="r" style="fill:#000000" xlink:href="#s" transform="translate(387 -96.4)" height="100%" width="100%" y="0" x="0"/><use id="q" style="fill:#000000" xlink:href="#r" transform="translate(18.3 -18.3)" height="100%" width="100%" y="0" x="0"/><use id="p" style="fill:#000000" xlink:href="#c" transform="translate(131 -31.5)" height="100%" width="100%" y="0" x="0"/><use id="o" style="fill:#000000" xlink:href="#p" transform="matrix(1.05 0 0 .985 373 -113)" height="100%" width="100%" y="0" x="0"/><use id="n" style="fill:#000000" xlink:href="#o" transform="translate(-318 96.6)" height="100%" width="100%" y="0" x="0"/><use id="m" style="fill:#000000" xlink:href="#n" transform="matrix(.890 0 0 .890 222 -35.8)" height="100%" width="100%" y="0" x="0"/><use style="fill:#000000" xlink:href="#m" transform="matrix(1.25 0 0 1.25 -207 -6.27)" height="100%" width="100%" y="0" x="0"/><use id="l" style="fill:#000000" xlink:href="#q" transform="translate(-235 50.9)" height="100%" width="100%" y="0" x="0"/><use id="k" style="fill:#000000" xlink:href="#l" transform="translate(-143 60)" height="100%" width="100%" y="0" x="0"/><use id="j" style="fill:#000000" xlink:href="#k" transform="translate(88.9 -17.4)" height="100%" width="100%" y="0" x="0"/><use id="b" style="fill:#000000" xlink:href="#j" transform="translate(-151 21.9)" height="100%" width="100%" y="0" x="0"/><use style="fill:#000000" xlink:href="#b" transform="translate(353 -103)" height="100%" width="100%" y="0" x="0"/><path id="i" d="m312 94.6c-0.0395 0.171-0.0832 0.321-0.112 0.415 0.198-0.187 0.358-0.312 0.493-0.396-0.126 0.001-0.253-0.006-0.38-0.0189m-24.7-1.09c-0.128 0.001-0.255-0.001-0.381-0.0148 0.127 0.0963 0.275 0.234 0.456 0.438-0.0208-0.0963-0.051-0.25-0.0752-0.424m38.2-25.2c2.85 0.522-1.2 1.93-1.2 1.93 2.67 0.217-0.343 1.47-0.343 1.47 1.83 0.576-2.1 1.49-2.1 1.49 0.188 0.0793 0.334 0.156 0.45 0.228 0.283 0.0116 0.357 0.123 0.305 0.288 0.12 0.232-0.102 0.418-0.404 0.556-0.148 0.153-0.318 0.308-0.482 0.447-0.228 0.23-0.489 0.456-0.686 0.619-0.124 0.124-0.222 0.212-0.222 0.212 4.26-0.901 0.654 1.66 0.654 1.66 2.88 0.594-1.54 1.88-1.54 1.88 4.11 0.727-0.522 1.92-0.522 1.92 2.69 0.119-1.68 1.87-1.68 1.87 3.62 0.394-0.435 1.61-0.435 1.61 0.666 0.494 0.249 0.631-0.338 0.646 0.0104 0.014 0.0192 0.028 0.0268 0.0425 0.0746 0.0722 0.107 0.179 0.0285 0.268-0.009 0.0105-0.0203 0.0191-0.0305 0.0296-0.0515 0.128-0.15 0.253-0.257 0.354 3.47-0.356 0.532 1.15 0.532 1.15 3.56 0.158-0.217 1.63-0.217 1.63 2.24 0.41-1.16 1.66-1.16 1.66 2.14 1.03-1.97 1.7-1.97 1.7 1.94 0.475-0.715 1.37-0.715 1.37 0.3 0.144 0.412 0.28 0.404 0.405 0.0897 0.0458 0.178 0.0954 0.263 0.154 0.147 0.101 0.145 0.304-0.0173 0.391-0.289 0.154-0.594 0.257-0.906 0.315 0.149 0.19 0.0596 0.641 0.0596 0.641 2.73-0.537 1.24 1.1 1.24 1.1 1.96 0.0869-0.365 1.3-0.365 1.3 1.69 0.731-2.02 1.36-2.02 1.36 1.82 0.541-0.414 1.03-0.414 1.03 0.555 0.471-0.0689 0.416-0.266 0.389 2.15 0.306-0.239 1.3-0.239 1.3 0.932 0.317 0.0883 0.651-0.502 0.824 0.0316 0.102 0.0486 0.189 0.0556 0.239 0.0678 0.185 0.0761 0.365 0.0761 0.365 2.42-0.55 0.202 0.995 0.202 0.995 2.17-0.43-0.933 1.67-0.933 1.67 3.24-0.974 1.07 0.835 1.07 0.835 2.45 0.0429-0.616 1.42-0.616 1.42 1.62 0.859-1.14 0.869-1.14 0.869 1.56 0.726-1.15 0.935-1.15 0.935 1.05 1.23-0.816 0.423-0.816 0.423 0.813 1.01-0.964 0.377-1.21 0.285 0.0711 0.309 0.06 0.684 0.0517 0.83-0.00038 0.0989-0.004 0.164-0.005 0.184 1.67-1.3 0.947 1.07 0.947 1.07 2.27 0.101-0.164 1.93-0.164 1.93 1.4 0.314-0.686 1.32-0.686 1.32 2.09 0.68-1.38 1.19-1.38 1.19 1.2 0.51-0.511 0.565-0.511 0.565 1.68 0.531-0.969 1.33-0.969 1.33 0.945 0.695-0.279 0.967-0.279 0.967 0.619 1.13-0.836 0.495-1.34 0.267-0.0409 0.152-0.0603 0.326-0.0701 0.547l0.001-0.0269c-0.0266 0.6-0.535 1.28-0.535 1.28 3.2 0.664-0.518 1.74-0.518 1.74 1.29 1.23-0.866 1.27-0.866 1.27 1.57 1.77-0.496 1.48-0.496 1.48 0.321 0.992-0.855 0.157-0.855 0.157-0.0296 0.147-0.0593 0.283-0.0651 0.414 0.006-0.131-0.0103-0.27-0.0268-0.419 0 0-1.24 0.728-0.833-0.232 0 0-2.07 0.103-0.353-1.52 0 0-2.12-0.223-0.731-1.34 0 0-3.61-1.4-0.357-1.78 0 0-0.4-0.72-0.374-1.32l-0.001 0.0269c0.01-0.221-0.0398-0.399-0.0672-0.553-0.522 0.182-2.09 0.681-1.37-0.387 0 0-1.19-0.378-0.183-0.987 0 0-2.57-1.03-0.844-1.41 0 0-1.69-0.206-0.457-0.608 0 0-3.41-0.815-1.27-1.31 0 0-1.99-1.18-0.566-1.37 0 0-2.27-2.03 0.007-1.93 0 0-0.51-2.43 1.04-0.983 0.00041-0.0196 0.003-0.0853 0.0111-0.184 0.004-0.146 0.0271-0.52 0.125-0.822-0.254 0.0697-2.08 0.548-1.18-0.391 0 0-1.93 0.636-0.776-0.494 0 0-2.68-0.448-1.06-1.03 0 0-2.75-0.254-1.06-0.967 0 0-2.94-1.64-0.488-1.47 0 0-2-1.99 1.14-0.737 0 0-2.9-2.36-0.782-1.74 0 0-2.07-1.73 0.289-0.973 0 0 0.0241-0.178 0.108-0.356 0.0112-0.0491 0.0361-0.135 0.0766-0.234-0.572-0.224-1.38-0.632-0.427-0.865 0 0-2.3-1.2-0.123-1.31-0.199 0.009-0.825 0.009-0.231-0.411 0 0-2.18-0.688-0.321-1.07 0 0-3.64-0.95-1.9-1.53 0 0-2.21-1.41-0.248-1.33 0 0-1.33-1.77 1.33-0.991 0 0-0.0487-0.457 0.116-0.634-0.306-0.0855-0.6-0.215-0.875-0.394-0.154-0.101-0.138-0.303 0.0173-0.391 0.0902-0.0509 0.183-0.0925 0.276-0.13 0.004-0.125 0.126-0.251 0.438-0.368 0 0-2.57-1.13-0.591-1.43 0 0-4.03-1.03-1.81-1.87 0 0-3.28-1.55-1.01-1.76 0 0-3.63-1.8-0.0724-1.64 0 0-2.79-1.76 0.632-1.1-0.098-0.11-0.185-0.243-0.225-0.375-0.01-0.0113-0.0195-0.0205-0.0278-0.0322-0.0703-0.0959-0.0287-0.199 0.0525-0.265 0.009-0.014 0.0188-0.0271 0.03-0.04-0.583-0.0659-0.986-0.239-0.279-0.673 0 0-3.93-1.57-0.291-1.65 0 0-4.2-2.13-1.51-2.01 0 0-4.51-1.6-0.35-1.96 0 0-4.29-1.67-1.37-2.01 0 0-3.36-2.87 0.798-1.6 0 0-0.0902-0.0964-0.203-0.231-0.181-0.18-0.422-0.428-0.629-0.677-0.15-0.153-0.306-0.323-0.44-0.488-0.288-0.164-0.493-0.369-0.353-0.59-0.0379-0.169 0.046-0.274 0.329-0.26 0.122-0.0622 0.274-0.125 0.469-0.188 0 0-3.83-1.26-1.96-1.67 0 0-2.89-1.52-0.211-1.5 0 0-3.9-1.76-1.02-2.03 0 0-2.07-1.28-0.404-1.3 0 0-1.36-2.83 2.52-0.581 0 0-0.0456-0.0678-0.0989-0.163-0.315-0.306-0.508-0.541-0.606-0.717-0.171-0.2-0.259-0.353-0.285-0.468-0.986-0.629-2.17-1.55-0.566-1.47 0 0-2.59-1.6 0.0547-1.24 0 0-1.02-3.01 2.2-0.148 0 0-2.31-2.58-0.269-1.74 0 0-0.265-1.87 2.53 0.36 0 0 0.302-1.59 2.31-0.0213 0 0-1.84-2.93 1.74-0.0473 0 0-0.599-2.13 2.08 0.092 0 0 0.664-1.95 1.04-0.0766 0 0 1.48-2.16 1.27 0.0562 0 0 1.81-1.78 1.13 0.545 0 0 2.61-1.62 1.61 0.0715 0 0 1.05-0.851 1.29-0.457 0.0374 0.0125 0.0713 0.0306 0.097 0.0588 0.0336 0.0373 0.06 0.0785 0.0921 0.117 0.0354 0.006 0.0652 0.023 0.0938 0.0468 0.0709 0.0389 0.138 0.0846 0.193 0.139 0.0577 0.0558 0.107 0.122 0.16 0.184-0.437-0.868-0.509-1.52 1.54 0.145 0.002-0.008 0.004-0.0156 0.006-0.0263-0.0121-0.26-0.0223-1.95 2.04 0.713 0.009-0.0667 0.05-0.177 0.0777-0.302 0.0251-0.15 0.147-0.318 0.152-0.445l0.403-9.09 6.01 0.266-0.403 9.09c-0.006 0.127 0.0546 0.303 0.0664 0.455 0.0166 0.127 0.0136 0.238 0.0161 0.306 2.29-2.47 2.13-0.788 2.09-0.53 0.002 0.011 0.00013 0.0183 0.002 0.0267 2.19-1.48 2.06-0.834 1.55-0.008 0.0577-0.0575 0.112-0.119 0.174-0.17 0.0605-0.0492 0.131-0.0887 0.205-0.121 0.0306-0.0213 0.0617-0.0347 0.0976-0.0384 0.0354-0.0351 0.0648-0.0738 0.102-0.108 0.028-0.0258 0.0634-0.0412 0.102-0.05 0.273-0.372 1.24 0.569 1.24 0.569-0.847-1.77 1.61 0.0715 1.61 0.0715-0.472-2.37 1.18-0.442 1.18-0.442-0.0176-2.23 1.27 0.0562 1.27 0.0562 0.544-1.83 1.03 0.169 1.03 0.169 2.86-1.98 2.08 0.092 2.08 0.092 3.81-2.55 1.72 0.201 1.72 0.201 2.14-1.39 2.3 0.226 2.3 0.226 2.98-1.97 2.55-0.135 2.55-0.135 2.11-0.648-0.422 1.71-0.422 1.71 3.47-2.57 2.18 0.342 2.18 0.342 2.66-0.127-0.0547 1.24-0.0547 1.24 1.6 0.0709 0.343 0.879-0.695 1.42-0.036 0.113-0.137 0.257-0.326 0.441-0.113 0.168-0.326 0.384-0.667 0.661-0.0609 0.0897-0.113 0.153-0.113 0.153 4.06-1.9 2.46 0.802 2.46 0.802 1.66 0.173-0.518 1.26-0.518 1.26"/><use id="h" style="fill:#000000" xlink:href="#c" transform="matrix(1.1 0 0 1.1 157 -66.9)" height="100%" width="100%" y="0" x="0"/><use id="g" style="fill:#000000" xlink:href="#h" transform="translate(168 -50.6)" height="100%" width="100%" y="0" x="0"/><use style="fill:#000000" xlink:href="#g" transform="translate(-223 61.9)" height="100%" width="100%" y="0" x="0"/><path id="f" d="m472 42.6s1.61 1.3 0.353 1.64c0.289-0.0792-4.17-1.27-5.45-1.13-0.777 0.0864-3.19 1.27-3.21 2.31-0.009 0.799 4.98-1.38 6.15-1.29 1.17 0.0951-1.08 0.966-1.5 1.48-0.413 0.51 4.2-0.977 5.82-0.694 1.61 0.283-2.2 1.17-2.86 1.38-0.659 0.204 1.93 0.486 2.67 1.34 0.742 0.858-5.42-0.853-8.47 0.458s-3.66 3.36-3.7 3.78c-0.0446 0.421 1.03-0.677 2.82-1.82 1.23-0.782 4.48-1.07 3.39-0.0338-0.268 0.254-3.75 2.59-3.75 2.59s1.19-0.368 2.91-1.03c1.72-0.664 3.8-1.2 4.71-0.148 0.577 0.669-0.957 0.526-3.19 1.17-2.24 0.641-5.05 2.52-5.05 2.52l1.85-0.578c1.85-0.578 3.22-0.079 2.72 0.146-2.26 1.03-5.87 3.44-5.87 3.44l2.26-1.06c2.26-1.06 3-0.184 3.63 0.161 0.635 0.345-3.7 1.42-3.7 1.42l1.96-0.23c1.96-0.23 3.12 0.0324 3.99 0.811 0.875 0.779-4.67-0.207-6.28 0.885s-2.05 2.34-2.34 2.86c-0.283 0.516 3.21-1.97 4.11-1.83 0.903 0.146-3.51 3.02-3.67 3.54-0.153 0.522 2.14-1.28 4.64-2.01 0.562-0.165 0.765 0.416-0.428 1.21-0.623 0.414-3.77 2.62-3.77 2.62l1.32-0.471c1.32-0.47 2.38-0.952 3.15-0.706 0.769 0.246-3.35 2.28-3.35 2.28 0.949-0.112 1.97-0.17 2.89 0.159 0.325 0.116 1.13 0.55 0.5 0.944-0.281 0.176-0.889 0.0655-1.2 0.0881-0.374 0.0273-0.749 0.0552-1.12 0.0826-1.19 0.0873-2.42 0.188-3.49 0.89-0.5 0.328-0.951 0.784-1.32 1.33-0.256 0.377-0.941 1.59-0.0501 1.14 0.921-0.465 3.53-1.11 2.98-0.758-1.94 1.26-2.84 2.83-2.84 2.83s0.486 0.448 2.6-0.305c2.11-0.752 2.76-0.657 3.54-0.517l-3.87 2.19s3.39-0.167 4.38 0.828c0.996 0.996 0 0-3.12-0.0324s-3.24 0.986-3.46 1.29c0.0919-0.124 1.13 0.332 1.3 0.373 0.364 0.0871 0.734 0.131 1.1 0.174 0.222 0.0258 1.21 0.34 0.673 0.874-0.105 0.105-0.249 0.102-0.38 0.0934-0.991-0.0654-1.99-0.167-2.98-0.027s-1.99 0.542-2.76 1.37c-0.606 0.653-1.07 1.62-1.14 2.64-0.0444 0.617 0.0536 0.643 0.383 0.304 0.283-0.29 0.513-0.57 0.87-0.712 1.19-0.476 1.75-1.4 2.79-1.46 1.04-0.0595-1.91 2.14-2.32 2.54-0.408 0.405 3.42-0.906 4.31-0.549 0.894 0.357-4.23 1.5-4.5 1.91-0.0932 0.138 1.27 0.214 1.4 0.222 0.367 0.0244 0.762 0.0433 1.11 0.197 0.133 0.058 0.268 0.122 0.374 0.244 0.0591 0.068 0.205 0.485 0.229 0.494-1.92-0.73-4.09-0.367-5.85 0.942-0.395 0.294-0.597 0.541-0.0748 0.614 0.312 0.0441 0.654-0.0251 0.968-0.044 0.461-0.0281 1.34-0.266 1.75 0.0748 0.404 0.335-3.91 2.79-3.91 2.79s1.55-0.0369 2.97 0.132 0.758 0.456-0.567 1.03c-1.33 0.576-4.54 2.65-4.83 3.27-0.287 0.622 2.5-0.735 3.26-0.49 0.769 0.245-1.89 1.19-3.41 3.34-0.482 0.68-0.736 1.43-1.17 2.13-0.374-0.734-0.56-1.51-0.98-2.23-1.33-2.28-3.89-3.45-3.1-3.63 0.788-0.177 3.44 1.42 3.21 0.776-0.232-0.645-3.25-3-4.52-3.69-1.27-0.691-1.91-1.04-0.474-1.08 1.43-0.0423 2.97 0.132 2.97 0.132s-4.08-2.82-3.65-3.12c0.44-0.303 1.29 0.0111 1.75 0.0802 0.311 0.0467 0.646 0.146 0.961 0.129 0.526-0.0266 0.347-0.29-0.0206-0.618-1.64-1.46-3.76-2.01-5.74-1.46 0.0248-0.007 0.207-0.41 0.272-0.472 0.117-0.112 0.256-0.163 0.394-0.21 0.361-0.122 0.757-0.106 1.12-0.098 0.124 0.003 1.49 0.0477 1.41-0.0976-0.241-0.434-5.24-2.03-4.32-2.31 0.922-0.276 4.62 1.37 4.25 0.928-0.37-0.439-3.12-2.89-2.09-2.74 1.03 0.151 1.51 1.12 2.65 1.7 0.343 0.174 0.547 0.472 0.803 0.787 0.299 0.366 0.398 0.349 0.409-0.269 0.017-1.02-0.36-2.02-0.906-2.73-0.694-0.894-1.65-1.38-2.63-1.61-0.974-0.227-1.97-0.214-2.97-0.236-0.132-0.003-0.276-0.0127-0.371-0.127-0.485-0.579 0.525-0.805 0.748-0.811 0.371-0.01 0.744-0.0211 1.11-0.0757 0.175-0.0256 1.25-0.389 1.33-0.257-0.197-0.322-0.223-1.35-3.33-1.59-3.11-0.243-4.19 0.66-3.11-0.243 1.08-0.904 4.44-0.438 4.44-0.438l-3.66-2.53c0.783-0.071 1.44-0.108 3.48 0.828s2.56 0.533 2.56 0.533-0.754-1.65-2.58-3.07c-0.511-0.399 2.03 0.474 2.9 1.02 0.847 0.526 0.272-0.742 0.0509-1.14-0.32-0.576-0.729-1.07-1.2-1.44-1-0.794-2.22-1-3.4-1.2-0.37-0.0603-0.74-0.121-1.11-0.182-0.311-0.0504-0.927 0.006-1.19-0.194-0.593-0.448 0.248-0.809 0.582-0.896 0.945-0.246 1.95-0.0984 2.89 0.0969 0 0-3.92-2.39-3.14-2.57 0.788-0.177 1.8 0.397 3.08 0.982l1.27 0.585s-2.94-2.48-3.52-2.95c-1.12-0.895-0.865-1.46-0.319-1.24 2.43 0.951 4.55 2.95 4.44 2.42-0.106-0.533-4.25-3.78-3.34-3.85 0.913-0.0652 4.17 2.72 3.93 2.18-0.236-0.539-0.569-1.82-2.07-3.05-1.51-1.23-7.12-0.738-6.18-1.44 0.941-0.698 2.12-0.858 4.05-0.455l1.93 0.403s-4.22-1.46-3.56-1.74c0.663-0.288 1.48-1.1 3.63 0.161l2.15 1.26s-3.39-2.72-5.54-3.95c-0.473-0.268 0.938-0.643 2.73 0.0956l1.79 0.739s-2.64-2.13-4.81-2.96c-2.17-0.836-3.71-0.829-3.08-1.44 1-0.971 3.02-0.25 4.68 0.564 1.65 0.813 2.8 1.28 2.8 1.28s-3.27-2.64-3.51-2.91c-0.995-1.13 2.22-0.554 3.37 0.333 1.69 1.29 2.66 2.48 2.65 2.06-0.007-0.423-0.434-2.52-3.35-4.09-2.92-1.58-9.21-0.416-8.4-1.2 0.815-0.788 3.42-0.84 2.78-1.1-0.639-0.262-4.36-1.48-2.72-1.62 1.63-0.139 6.1 1.75 5.73 1.21-0.366-0.545-2.53-1.61-1.36-1.6 1.17 0.008 5.95 2.62 6.01 1.83 0.0792-1.04-2.22-2.43-2.99-2.58-1.26-0.254-5.8 0.536-5.52 0.641-1.22-0.453 0.497-1.6 0.497-1.6s-5.38-0.133-4.56-0.943c0.816-0.81 4.05-0.56 3.67-0.683-0.384-0.123-3.55-1.95-2.51-1.91 1.04 0.046 1.91 0.93 5.03 0.963 3.12 0.0324 4.19 0.609 2.91 0.0243-1.27-0.585-4.45-2.31-3.03-2.04 1.42 0.274 5.37 1.93 6.04 1.64 0.663-0.288-3.13-2.78-2.09-2.74 1.04 0.046 1.87 1.77 3.17 1.83 1.3 0.0575-1.19-2.59 0.107-2.43 1.29 0.163 4.93 3.07 4.72 2.11-0.218-0.961-0.267-2.77 0.474-1.89 0.74 0.882 1.98 2.21 1.98 2.21s-0.121-3.2 0.359-2.32c0.259 0.474 0.795 1.29 1.12 1.88l0.477-10.8 4.61 0.204-0.477 10.8c0.734-0.538 1.05-1.32 1.35-1.77 0.557-0.834 0.25 2.35 0.25 2.35s1.34-1.21 2.15-2.02c0.816-0.813 0.598 0.981 0.296 1.92-0.301 0.938 3.58-1.64 4.88-1.69 1.3-0.048-1.41 2.37-0.109 2.43 1.3 0.0575 2.28-1.59 3.32-1.54 1.04 0.046-2.96 2.19-2.32 2.54 0.635 0.345 4.72-0.954 6.16-1.1 1.44-0.148-1.88 1.29-3.2 1.76s-0.203-0.01 2.91 0.234c3.11 0.243 4.05-0.56 5.09-0.515 1.04 0.046-2.28 1.59-2.67 1.68-0.394 0.0882 2.85 0.126 3.59 1 0.741 0.879-4.63 0.536-4.63 0.536"/><use id="e" style="fill:#000000" xlink:href="#f" transform="translate(-76.1 3.32)" height="100%" width="100%" y="0" x="0"/><use id="a" style="fill:#000000" xlink:href="#b" transform="translate(337 -109)" height="100%" width="100%" y="0" x="0"/><use id="d" style="fill:#000000" xlink:href="#a" transform="translate(-47.2 32)" height="100%" width="100%" y="0" x="0"/><use style="fill:#000000" xlink:href="#d" transform="translate(-16.5 -17.2)" height="100%" width="100%" y="0" x="0"/><use style="fill:#000000" xlink:href="#i" transform="translate(-25.8 9.24)" height="100%" width="100%" y="0" x="0"/><use style="fill:#000000" xlink:href="#e" transform="matrix(1 0 0 .795 150 -13.5)" height="100%" width="100%" y="0" x="0"/><path style="fill-rule:evenodd;stroke:#000;stroke-width:.758px" d="m0.393 165s266-53.9 266-55c0-1.13 42.6-25.5 42.6-25.5l158-35.9 124-44 6-4.22-597-0.38z"/><path d="m29.5 185c-0.0312 0.141-0.0656 0.266-0.0885 0.344 0.154-0.156 0.28-0.259 0.385-0.329-0.0982 0.002-0.197-0.005-0.296-0.0151m-19.2-0.852c-0.0996 0.002-0.199-0.00079-0.296-0.0111 0.0986 0.0794 0.214 0.193 0.354 0.362-0.016-0.0797-0.0392-0.207-0.0577-0.351m29.8-21c2.22 0.426-0.936 1.6-0.936 1.6 2.08 0.174-0.27 1.22-0.27 1.22 1.42 0.473-1.64 1.24-1.64 1.24 0.146 0.0652 0.26 0.128 0.35 0.188 0.221 0.009 0.278 0.101 0.237 0.238 0.0929 0.192-0.0807 0.347-0.316 0.461-0.116 0.127-0.249 0.256-0.376 0.372-0.178 0.191-0.382 0.379-0.536 0.514-0.0969 0.103-0.174 0.176-0.174 0.176 3.32-0.755 0.506 1.38 0.506 1.38 2.24 0.486-1.2 1.56-1.2 1.56 3.2 0.593-0.411 1.59-0.411 1.59 2.09 0.0927-1.32 1.55-1.32 1.55 2.82 0.319-0.342 1.34-0.342 1.34 0.518 0.408 0.193 0.522-0.264 0.535 0.008 0.0116 0.0148 0.0231 0.0208 0.0352 0.058 0.0596 0.0833 0.148 0.0215 0.222-0.007 0.009-0.0159 0.0159-0.0238 0.0246-0.0404 0.106-0.118 0.21-0.201 0.293 2.7-0.303 0.412 0.95 0.412 0.95 2.77 0.123-0.173 1.35-0.173 1.35 1.74 0.335-0.911 1.38-0.911 1.38 1.66 0.847-1.54 1.41-1.54 1.41 1.51 0.389-0.56 1.14-0.56 1.14 0.234 0.119 0.32 0.231 0.313 0.335 0.0698 0.0377 0.138 0.0786 0.205 0.127 0.115 0.0833 0.113 0.252-0.0143 0.324-0.226 0.128-0.463 0.214-0.707 0.263 0.115 0.157 0.045 0.531 0.045 0.531 2.12-0.45 0.964 0.912 0.964 0.912 1.53 0.0677-0.287 1.08-0.287 1.08 1.31 0.602-1.58 1.13-1.58 1.13 1.41 0.444-0.325 0.856-0.325 0.856 0.431 0.389-0.0546 0.344-0.208 0.323 1.68 0.249-0.189 1.07-0.189 1.07 0.725 0.26 0.0674 0.539-0.393 0.684 0.0244 0.0841 0.0374 0.157 0.0428 0.198 0.0524 0.153 0.0584 0.302 0.0584 0.302 1.89-0.46 0.155 0.823 0.155 0.823 1.69-0.361-0.73 1.38-0.73 1.38 2.52-0.813 0.83 0.689 0.83 0.689 1.91 0.0302-0.483 1.18-0.483 1.18 1.26 0.708-0.893 0.722-0.893 0.722 1.22 0.598-0.895 0.776-0.895 0.776 0.816 1.01-0.637 0.352-0.637 0.352 0.631 0.839-0.752 0.314-0.944 0.238 0.0547 0.256 0.0453 0.566 0.0385 0.687-0.00043 0.0819-0.004 0.136-0.005 0.152 1.3-1.08 0.735 0.884 0.735 0.884 1.77 0.0784-0.132 1.59-0.132 1.59 1.09 0.257-0.537 1.09-0.537 1.09 1.63 0.558-1.08 0.988-1.08 0.988 0.931 0.42-0.4 0.469-0.4 0.469 1.31 0.436-0.758 1.1-0.758 1.1 0.735 0.573-0.219 0.801-0.219 0.801 0.48 0.932-0.652 0.411-1.04 0.224-0.0323 0.126-0.0477 0.27-0.0558 0.453l0.00096-0.0223c-0.022 0.497-0.419 1.06-0.419 1.06 2.5 0.543-0.407 1.44-0.407 1.44 1 1.02-0.677 1.05-0.677 1.05 1.22 1.46-0.39 1.23-0.39 1.23 0.248 0.821-0.666 0.132-0.666 0.132-0.0234 0.122-0.0468 0.235-0.0516 0.343 0.005-0.109-0.007-0.223-0.02-0.346 0 0-0.968 0.606-0.649-0.19 0 0-1.61 0.0898-0.272-1.26 0 0-1.65-0.18-0.567-1.1 0 0-2.81-1.15-0.274-1.47 0 0-0.31-0.596-0.288-1.09l-0.00096 0.0223c0.008-0.183-0.0301-0.33-0.0512-0.458-0.407 0.152-1.63 0.569-1.07-0.318 0 0-0.923-0.311-0.14-0.817 0 0-2-0.845-0.654-1.16 0 0-1.32-0.167-0.355-0.502 0 0-2.66-0.667-0.986-1.08 0 0-1.55-0.974-0.438-1.13 0 0-1.76-1.68 0.01-1.6 0 0-0.392-2.01 0.811-0.816 0.00035-0.0162 0.002-0.0706 0.009-0.152 0.004-0.121 0.022-0.431 0.0991-0.681-0.198 0.0583-1.62 0.458-0.919-0.321 0 0-1.51 0.531-0.603-0.407 0 0-2.09-0.365-0.823-0.852 0 0-2.14-0.204-0.825-0.798 0 0-2.28-1.35-0.377-1.21 0 0-1.55-1.65 0.888-0.613 0 0-2.26-1.95-0.605-1.44 0 0-1.61-1.43 0.227-0.806 0 0 0.0192-0.148 0.0849-0.295 0.009-0.0408 0.0284-0.112 0.0602-0.194-0.445-0.185-1.08-0.52-0.331-0.716 0 0-1.79-0.987-0.0929-1.09-0.155 0.008-0.643 0.009-0.179-0.34 0 0-1.7-0.565-0.248-0.882 0 0-2.84-0.779-1.47-1.26 0 0-1.72-1.16-0.191-1.1 0 0-1.04-1.46 1.04-0.823 0 0-0.037-0.379 0.0918-0.525-0.238-0.0701-0.467-0.177-0.681-0.324-0.12-0.0829-0.107-0.251 0.0143-0.324 0.0704-0.0423 0.143-0.077 0.215-0.108 0.003-0.104 0.0987-0.208 0.342-0.306 0 0-2-0.926-0.457-1.18 0 0-3.14-0.847-1.4-1.54 0 0-2.55-1.27-0.786-1.45 0 0-2.82-1.48-0.0529-1.36 0 0-2.17-1.45 0.494-0.91-0.0761-0.0907-0.144-0.201-0.175-0.31-0.007-0.009-0.0151-0.0169-0.0215-0.0266-0.0546-0.0793-0.0219-0.165 0.0415-0.219 0.007-0.0116 0.0147-0.0225 0.0235-0.0332-0.454-0.0532-0.768-0.196-0.216-0.556 0 0-3.06-1.29-0.223-1.36 0 0-3.26-1.76-1.17-1.66 0 0-3.51-1.32-0.268-1.62 0 0-3.34-1.37-1.06-1.66 0 0-2.61-2.37 0.625-1.33 0 0-0.0701-0.0796-0.158-0.191-0.141-0.148-0.327-0.353-0.488-0.56-0.117-0.127-0.237-0.267-0.342-0.403-0.224-0.135-0.383-0.304-0.274-0.488-0.0292-0.139 0.0364-0.227 0.257-0.216 0.095-0.0517 0.214-0.104 0.366-0.156 0 0-2.98-1.03-1.53-1.38 0 0-2.25-1.25-0.161-1.24 0 0-3.04-1.45-0.791-1.68 0 0-1.61-1.05-0.312-1.08 0 0-1.05-2.34 1.97-0.487 0 0-0.0354-0.056-0.0767-0.134-0.245-0.253-0.395-0.446-0.471-0.593-0.133-0.165-0.201-0.291-0.221-0.387-0.767-0.519-1.68-1.27-0.438-1.22 0 0-2.01-1.32 0.0453-1.02 0 0-0.79-2.49 1.72-0.127 0 0-1.8-2.13-0.206-1.44 0 0-0.202-1.54 1.97 0.292 0 0 0.239-1.32 1.8-0.0226 0 0-1.42-2.42 1.35-0.0429 0 0-0.462-1.76 1.62 0.0717 0 0 0.521-1.62 0.813-0.0657 0 0 1.16-1.79 0.988 0.0438 0 0 1.42-1.47 0.881 0.448 0 0 2.04-1.34 1.26 0.0557 0 0 0.819-0.707 1-0.381 0.0291 0.0103 0.0555 0.0252 0.0754 0.0485 0.026 0.0308 0.0466 0.0648 0.0715 0.0963 0.0276 0.005 0.0508 0.0189 0.073 0.0386 0.0552 0.0321 0.107 0.0697 0.15 0.115 0.0449 0.046 0.0832 0.101 0.124 0.152-0.339-0.717-0.393-1.26 1.2 0.117 0.002-0.007 0.003-0.0129 0.005-0.0218-0.009-0.215-0.0131-1.62 1.59 0.586 0.007-0.0553 0.0393-0.147 0.0612-0.25 0.0199-0.124 0.115-0.263 0.12-0.369l0.333-7.53 4.68 0.207-0.333 7.53c-0.005 0.106 0.0419 0.251 0.0508 0.376 0.0127 0.105 0.01 0.197 0.0119 0.253 1.79-2.05 1.66-0.657 1.63-0.444 0.001 0.009 0.00005 0.0151 0.001 0.0221 1.71-1.23 1.61-0.695 1.2-0.0101 0.0451-0.0478 0.0877-0.0989 0.136-0.141 0.0473-0.0408 0.102-0.0737 0.16-0.101 0.0239-0.0177 0.0482-0.0289 0.0761-0.032 0.0276-0.0291 0.0507-0.0612 0.0794-0.0896 0.0219-0.0215 0.0495-0.0342 0.0794-0.0416 0.213-0.309 0.966 0.468 0.966 0.468-0.656-1.46 1.26 0.0557 1.26 0.0557-0.363-1.96 0.918-0.369 0.918-0.369-0.009-1.84 0.988 0.0438 0.988 0.0438 0.428-1.52 0.804 0.137 0.804 0.137 2.23-1.64 1.62 0.0717 1.62 0.0717 2.98-2.12 1.34 0.162 1.34 0.162 1.67-1.16 1.79 0.182 1.79 0.182 2.32-1.64 1.99-0.117 1.99-0.117 1.65-0.542-0.333 1.42-0.333 1.42 2.71-2.13 1.7 0.278 1.7 0.278 2.08-0.111-0.0453 1.02-0.0453 1.02 1.25 0.0552 0.265 0.727-0.544 1.18-0.0283 0.0932-0.108 0.213-0.255 0.366-0.0884 0.139-0.255 0.319-0.521 0.549-0.0477 0.0744-0.0882 0.127-0.0882 0.127 3.17-1.58 1.92 0.659 1.92 0.659 1.29 0.139-0.406 1.05-0.406 1.05"/><use xlink:href="#a" transform="translate(175 -22.1)" height="100%" width="100%" y="0" x="0"/></g></svg>
