<?xml version="1.0" encoding="UTF-8" standalone="no"?>
<svg
   xmlns:dc="http://purl.org/dc/elements/1.1/"
   xmlns:cc="http://creativecommons.org/ns#"
   xmlns:rdf="http://www.w3.org/1999/02/22-rdf-syntax-ns#"
   xmlns:svg="http://www.w3.org/2000/svg"
   xmlns="http://www.w3.org/2000/svg"
   xmlns:sodipodi="http://sodipodi.sourceforge.net/DTD/sodipodi-0.dtd"
   xmlns:inkscape="http://www.inkscape.org/namespaces/inkscape"
   height="335.42"
   width="263.83"
   viewBox="0 0 263.83214 335.42895"
   id="svg4240"
   version="1.1"
   inkscape:version="0.91 r13725"
   sodipodi:docname="sailboat.svg">
  <metadata
     id="metadata4320">
    <rdf:RDF>
      <cc:Work
         rdf:about="">
        <dc:format>image/svg+xml</dc:format>
        <dc:type
           rdf:resource="http://purl.org/dc/dcmitype/StillImage" />
      </cc:Work>
    </rdf:RDF>
  </metadata>
  <defs
     id="defs4318" />
  <sodipodi:namedview
     pagecolor="#ffffff"
     bordercolor="#666666"
     borderopacity="1"
     objecttolerance="10"
     gridtolerance="10"
     guidetolerance="10"
     inkscape:pageopacity="0"
     inkscape:pageshadow="2"
     inkscape:window-width="2558"
     inkscape:window-height="1374"
     id="namedview4316"
     showgrid="false"
     inkscape:zoom="2.5065587"
     inkscape:cx="66.235958"
     inkscape:cy="189.13457"
     inkscape:window-x="0"
     inkscape:window-y="35"
     inkscape:window-maximized="1"
     inkscape:current-layer="g4242" />
  <g
     stroke="#000"
     id="g4242">
    <g
       id="g5122">
      <path
         sodipodi:nodetypes="cscccc"
         style="fill-rule:evenodd;stroke-width:0.493"
         inkscape:connector-curvature="0"
         id="path4244"
         transform="matrix(0.51712,0,0,0.54949,-728.94,119.97)"
         d="m 1796.79,392.10714 c 0,0 10.074,-7.90414 30.243,-29.56414 20.169,-21.66 26.22,-33.474 26.22,-33.474 -143.93,8.397 -333.41,9.807 -435.69,3.361 6.382,19.041 26.3457,49.94738 31.5267,59.67714 z" />
      <path
         id="path4246"
         transform="matrix(.51712 0 0 .54949 -728.94 119.97)"
         fill-rule="evenodd"
         stroke-width=".542"
         d="M1662.4 332.47v-548.08l-10.936 3.485v545.21z" />
      <path
         id="path4248"
         transform="matrix(.51712 0 0 .54949 -728.94 119.97)"
         fill-rule="evenodd"
         stroke-width=".751"
         d="M1650.2 318.53l-86.254-.015-14.098 18.662 209.74-2.017c-4.511-6.581-9.466-12.718-16.638-16.638-40.426.002-64.354.005-92.75.008z" />
      <path
         id="path4250"
         transform="matrix(.51712 0 0 .54949 -728.94 119.97)"
         fill="none"
         stroke-width=".546"
         d="M1651.7-213.14l-233.6 545.79" />
      <path
         id="path4252"
         transform="matrix(.51712 0 0 .54949 -728.94 119.97)"
         fill="none"
         stroke-width=".544"
         d="M1661.8-217.27l188.93 545.36" />
      <path
         style="fill-rule:evenodd;stroke-width:0.27612475"
         inkscape:connector-curvature="0"
         id="path4254"
         d="m 125.65251,282.38266 -89.073918,0 0,-4.29921 89.466928,0 z" />
      <path
         style="fill-rule:evenodd;stroke-width:0.30970746"
         inkscape:connector-curvature="0"
         id="path4256"
         d="m 38.362656,278.245 3.058765,-3.52553 c 0,0 7.785241,-2.4683 9.731681,-2.82108 1.945923,-0.35222 10.287585,2.46831 10.287585,2.46831 0,0 9.244555,-3.75631 12.858706,-4.46186 3.614669,-0.70499 6.603623,-1.88475 12.999363,-0.47421 6.39574,1.41054 9.452953,2.46776 9.452953,2.46776 0,0 8.045351,-5.58996 14.440581,-6.29495 6.39522,-0.705 13.92087,-4.28163 13.92087,-4.28163 l -1.11233,17.62874 z" />
      <path
         style="fill-rule:evenodd;stroke-width:0.17292242"
         inkscape:connector-curvature="0"
         id="path4258"
         d="m 9.2372287,289.33346 c -1.0273947,0 -7.1922808,1.42553 -8.2196755,-0.23744 -1.02739466,-1.66343 -0.25684864,-5.22726 -0.25684864,-5.22726 L 13.089959,283.63087 c 0,0 1.284243,2.85152 -1.027395,4.51449 -2.3116379,1.66342 -2.8253353,1.1881 -2.8253353,1.1881 z" />
      <path
         id="path4260"
         transform="matrix(.51712 0 0 .54949 -728.94 119.97)"
         fill="none"
         stroke-width=".499"
         d="M1587.6 319.04l1.426 14.973M1800.8 332.56s-6.417-18.539 16.4-19.252c22.817-.713 55.616-7.13 55.616-7.13-14.381 8.556-13.931 17.113-19.965 25.669" />
      <path
         id="path4262"
         transform="matrix(.51712 0 0 .54949 -728.94 119.97)"
         stroke-width=".756"
         d="M1652 327.84v-3.975l2.899-.33c1.595-.182 3.863-.461 5.042-.62l2.143-.29v9.19H1652v-3.975z" />
      <path
         id="path4264"
         transform="matrix(.51712 0 0 .54949 -728.94 119.97)"
         fill-rule="evenodd"
         stroke-width=".499"
         d="M1417.6 313.44c0-2.017 2.017-11.092 15.63-11.092s17.142 12.1 17.142 12.1l26.722 10.084s6.554 4.033-2.017 10.588c-8.57 6.554-52.435 0-52.435 0z" />
      <path
         id="path4266"
         transform="matrix(.51712 0 0 .54949 -728.94 119.97)"
         fill="none"
         stroke-width=".499"
         d="M1851.2 309.89l-11.48 21.462M1818.8 313.88l.5 17.469M1835.7 311.39a1540.185 1540.185 0 0 0-3.494 19.965" />
      <path
         id="path4268"
         transform="matrix(.51712 0 0 .54949 -728.94 119.97)"
         fill="none"
         stroke-width=".501"
         d="M1796.5 332.21s-6.728-18.029 17.182-18.523c33.185-.686 59.007-6.86 58.271-6.86-4.698 8.8-16.807 15.75-20.918 24.697" />
      <path
         id="path4270"
         transform="matrix(.51712 0 0 .54949 -728.94 119.97)"
         fill="none"
         stroke-width=".499"
         d="M1448.1 308.48s20.963 12.977 45.919 10.481c24.956-2.496 25.455-2.995 25.455-2.995s12.478 6.988 32.443 3.993l19.965-2.994s17.968 7.486 33.441 3.992l15.473-3.493s12.977 5.989 27.95 5.49c14.974-.5 31.943-6.489 31.943-6.489s-3.494 8.485 31.943 3.494l35.437-4.991s17.968 6.988 39.43 2.496 21.961-4.492 21.961-4.492l4.492 1.996 7.487-2.995M1519 314.76l-.5 21.961M1571.4 315.26l-.998 21.462M1680.7 315.26l-2.496 24.956M1621.3 316.76l.5 22.959M1748.6 313.76v22.46M1648-216.07l14.823-.706" />
      <path
         id="path4272"
         transform="matrix(.51712 0 0 .54949 -728.94 119.97)"
         fill-rule="evenodd"
         stroke-width=".293"
         d="M1662-214.33s-9.85-2.104-9.85-1.339c0 .765-3.583 4.017 0 3.443 3.581-.574 9.85-2.104 9.85-2.104z" />
      <path
         id="path4274"
         transform="matrix(.51712 0 0 .54949 -728.94 119.97)"
         fill-rule="evenodd"
         stroke-width=".111"
         d="M1660.9-217.07c.821-.62 3.614-2.01 3.37-.57-.244 1.44 1.923 2.137-.97 1.898-2.891-.24-2.4-1.328-2.4-1.328z" />
      <path
         id="path4276"
         transform="matrix(.51712 0 0 .54949 -728.94 119.97)"
         fill="none"
         stroke-width=".533"
         d="M1652-213.91c-2.117 3.223-170.8 500.33-170.8 500.33" />
      <path
         id="path4278"
         transform="matrix(.51712 0 0 .54949 -728.94 119.97)"
         fill="none"
         stroke-width=".529"
         d="M1660.5-210.79l104.46 547.33" />
      <path
         id="path4280"
         transform="matrix(.51712 0 0 .54949 -728.94 119.97)"
         fill="none"
         stroke-width=".499"
         d="M1650.6 289.24s-11.294 31.058-20.47 15.529c-9.176-15.529-10.588-16.235-10.588-16.235s-7.764 18.352-15.529 10.588c-7.764-7.764-7.764-7.059-7.764-7.059M1484.7 290.65s8.47 21.176 16.941 9.882l8.47-11.294v-.706l.706-2.117" />
      <path
         id="path4282"
         transform="matrix(.51712 0 0 .54949 -728.94 119.97)"
         fill-rule="evenodd"
         stroke-width=".525"
         d="M1768.2 346.41c1.562-16.925-14.055-16.22 5.466-21.156 19.52-4.936 36.699-7.052 42.165 1.41 5.466 8.463 25.767 19.746 3.904 21.862-21.863 2.116-51.535-2.115-51.535-2.115z" />
      <path
         id="path4284"
         transform="matrix(.51712 0 0 .54949 -728.94 119.97)"
         fill-rule="evenodd"
         stroke-width=".143"
         d="M1844.1 332.06c.283-6.983-2.544-6.692.99-8.728 3.533-2.037 6.642-2.91 7.631.582.99 3.491 4.664 8.146.707 9.019-3.957.873-9.328-.873-9.328-.873z" />
      <path
         id="path4286"
         transform="matrix(.51712 0 0 .54949 -728.94 119.97)"
         fill="none"
         stroke-width=".531"
         d="M1650.6-212.74l-45.165 538.69" />
      <path
         id="path4288"
         transform="matrix(.51712 0 0 .54949 -728.94 119.97)"
         fill="none"
         stroke-width=".499"
         d="M1493.2 340.06c-22.284 7.769-1.516-18.164 9.882-23.293" />
      <path
         id="path4290"
         transform="matrix(.51712 0 0 .54949 -728.94 119.97)"
         fill-rule="evenodd"
         stroke-width=".499"
         d="M1506.6 335.12l28.234-4.941 4.941 9.882 3.53 6.353" />
      <path
         id="path4292"
         transform="matrix(.51712 0 0 .54949 -728.94 119.97)"
         fill-rule="evenodd"
         stroke-width=".177"
         d="M1658.6 316.26l-36.717-.002-6.001 2.436 89.283-.263c-1.92-.86-4.03-1.66-7.083-2.172l-39.482.001z" />
      <path
         id="path4294"
         transform="matrix(.51712 0 0 .54949 -728.94 119.97)"
         fill="none"
         stroke-width=".499"
         d="M1446.3 310.91s20.963 12.977 45.919 10.481c24.956-2.496 25.455-2.995 25.455-2.995s12.478 6.988 32.442 3.993l19.965-2.994s17.968 7.486 33.441 3.992l15.473-3.493s12.977 5.989 27.95 5.49c14.974-.5 31.943-6.489 31.943-6.489s-3.494 8.485 31.943 3.494l35.437-4.991s17.968 6.988 39.43 2.496 21.961-4.492 21.961-4.492l4.492 1.996 7.487-2.995" />
      <path
         id="path4296"
         transform="matrix(.51712 0 0 .54949 -728.94 119.97)"
         fill="none"
         stroke-width=".375"
         d="M1525.4 319.17s-6.33 31.258-11.473 15.629-5.934-16.339-5.934-16.339-4.352 18.471-8.704 10.656c-4.352-7.814-4.352-7.104-4.352-7.104" />
      <path
         id="path4298"
         transform="matrix(.51712 0 0 .54949 -728.94 119.97)"
         fill-rule="evenodd"
         stroke-width=".104"
         d="M1499.5 327.83c.885-6.192 2.064-11.647.147-11.647-1.916 0-5.307-.442-5.012 1.18.295 1.621 2.064 5.16 2.211 10.466.148 5.308-3.096 13.121-2.653 13.121s.737 6.192 3.98 3.686c3.244-2.506 6.487-6.192 5.602-7.371-.884-1.18-4.275-7.224-4.275-8.256s.147-1.77.147-1.77zM1511.3 327.33c.885-6.192 2.064-11.647.147-11.647-1.916 0-5.307-.442-5.012 1.18.295 1.621 2.064 5.16 2.211 10.466.148 5.308-3.096 13.121-2.653 13.121s.737 6.192 3.98 3.686c3.244-2.506 6.487-6.192 5.602-7.371-.884-1.18-4.275-7.224-4.275-8.256s.147-1.77.147-1.77z" />
      <path
         id="path4300"
         transform="matrix(.51712 0 0 .54949 -728.94 119.97)"
         fill-rule="evenodd"
         stroke-width=".101"
         d="M1822.7 323.8c-.822-6.193-1.918-11.648-.137-11.648s4.932-.442 4.658 1.18-1.918 5.16-2.055 10.469c-.137 5.308 2.877 13.123 2.466 13.123s-.685 6.192-3.699 3.686c-3.014-2.507-6.028-6.193-5.206-7.373.822-1.18 3.973-7.225 3.973-8.257s-.137-1.769-.137-1.769z" />
      <path
         id="path4302"
         transform="matrix(.51712 0 0 .54949 -728.94 119.97)"
         fill-rule="evenodd"
         stroke-width=".139"
         d="M1842.5 336.83c.318-5.787-2.864-5.546 1.114-7.233 3.978-1.688 7.479-2.412 8.593.482s5.251 6.751.796 7.474c-4.456.724-10.502-.723-10.502-.723z" />
      <path
         id="path4304"
         transform="matrix(.51712 0 0 .54949 -728.94 119.97)"
         fill-rule="evenodd"
         stroke-width=".125"
         d="M1647.3 174.97c-.5 15.683-1.167 29.499-.083 29.499s3.002 1.12 2.835-2.987-1.167-13.07-1.25-26.512c-.084-13.443 1.75-33.233 1.5-33.233s-.417-15.683-2.251-9.336c-1.835 6.348-3.67 15.683-3.169 18.67.5 2.988 2.418 18.297 2.418 20.911 0 2.614-.083 4.481-.083 4.481z" />
      <path
         sodipodi:nodetypes="cc"
         inkscape:connector-curvature="0"
         style="fill:none;stroke-width:0.93800688;stroke-miterlimit:4;stroke-dasharray:none;stroke-linecap:round"
         id="path4306"
         transform="matrix(0.51712,0,0,0.54949,-728.94,119.97)"
         d="m 1850.4,332.7 69.247,59.40714" />
      <path
         id="path4308"
         transform="matrix(.51712 0 0 .54949 -728.94 119.97)"
         fill-rule="evenodd"
         stroke-width=".877"
         d="M1650.1 129.47l-1.08 9.978 15.665-14.254-1.08-9.265zM1650.2-64.002l-1.08 9.978 15.665-14.254-1.08-9.265z" />
      <path
         id="path4310"
         transform="matrix(.51712 0 0 .54949 -728.94 119.97)"
         fill="none"
         stroke-width="1.003"
         d="M1651.9-205.01l-3.535 150.72v193.38l-.707 179.16" />
      <path
         id="path4312"
         transform="matrix(.51712 0 0 .54949 -728.94 119.97)"
         fill="none"
         d="M1659.7-202.89l6.364 132.94v386.08M1647 132.28l-24.749 184.55M1645.6 137.94l36.062 179.61" />
      <path
         id="path4314"
         transform="matrix(.51712 0 0 .54949 -728.94 119.97)"
         fill-rule="evenodd"
         stroke-width=".104"
         d="M1665.8 275.8c.885-6.192 2.064-11.647.147-11.647-1.916 0-5.307-.442-5.012 1.18.295 1.621 2.064 5.16 2.211 10.466.148 5.308-3.096 13.121-2.653 13.121s.737 6.192 3.98 3.686c3.244-2.506 6.487-6.192 5.602-7.371-.884-1.18-4.275-7.224-4.275-8.256s.147-1.77.147-1.77z" />
    </g>
  </g>
</svg>
