<svg xmlns:rdf="http://www.w3.org/1999/02/22-rdf-syntax-ns#" xmlns="http://www.w3.org/2000/svg" height="528mm" width="393mm" version="1.1" xmlns:cc="http://creativecommons.org/ns#" xmlns:xlink="http://www.w3.org/1999/xlink" viewBox="0 0 1391.1853 1871.2714" xmlns:dc="http://purl.org/dc/elements/1.1/">
<g transform="translate(228 813)">
<path style="stroke:#000;stroke-width:2.18;stroke-linecap:round;fill-rule:evenodd" d="m-166 1.06e3h1.04e3l119-128 6.58-8.03-2.76-7.17 0.72-1.65-7.39-17.9-8.55-25-1.03-0.101 6.2 28.1-2.04 12.3-5.45-11.4-6.87 1.15-1.73 12-119-1.78s-9.64-13.2-21.9-21.1c-2.06-1.34-8.9-6.11-11-7.51-19.3-12.7-36.8-4.05-66.7-5.9-11.5-0.715-24.3 9.97-32.4 21.1-5.17 7.1-5.21 15.6-5.21 15.6l-90.5 0.125-34.1-20.2-46.4-2.99-24.7-7.6-12.7-580 5.81-2.21-6.63-35.3-5.59-270 13.5-14.3-1.31-7.24-12.9 5.15-17.3-790-13.4 0.286 9.1 795-16.4 8.52-1.87 18.2 19.4-8.91 7.49 736c4.53-0.189-60.7 11.1-213 20.4-41.3 2.51-128 6.74-181 11.2-1.08 0.0908-1.25 1.25-2.3 1.34l-42.1 3.61s-3.47 4.56 1.38 9.43 6.75-0.291 14.9 0.687c1.99 0.237-25.1 163-23.2 161l7.34-4.16s18.9-158 21.7-156c4.91 2.08 22.6 7.69 22.6 7.69l3.91 26.6s3.3 12.6 6.69 15.1c5.94 4.42 82.5-4.18 82.5-4.18l150-1.35 152-11.2 0.985 32.5c-3.2 5.13-7.48 7.75-8.63 11.1-3.5 10.2-4.01 23.5-4.01 23.5l-41.5 5.4-19.7-9.63-97.5-1.62-14 7.43-44.8 0.602-0.93-3.98 0.558-6.23s-3.23-1.2-4.89-1.04c-1.65 0.162-4.59 1.96-4.59 1.96l0.757 6.04-0.759 3.38-25.7 0.345-2.68 0.0898-1-6.28s-4.69-1.82-6.78-1.78c-2.21 0.0355-5.27 2.11-5.27 2.11l-0.703 14.7-8 6.33-8.09 31.1c-6.73 0.454-14.4-1.6-21-1.15-5.91 0.398-10.8 3.29-16.6 3.68-3.03 0.204 1.09-3.85-1.92-3.65-2.95 0.198-13 4.65-16 4.85-8.63 0.579-20.7 0.189-30.6 0.376-2.45 0.0463-2.76-7.87-4.86-7.73-3.57 0.239-9.12 8.48-12.7 8.73-64.3 4.48-122 9.97-192 14.5l3.68-5.81s9.59-3.38 13.9-4.29c24.6-5.24 66.5-6.79 66.5-6.79l-73.3 0.914-22 0.417-2.31 2.14-7.39 14.8-17.9 1.19-82.3 50.3 4.03 10.7 52.4 13.6z"/>
<path style="stroke:#000;stroke-width:2;fill:none" d="m-76.3 953 17.5-68.2h15.7l6.79 62.9"/>
<path style="stroke:#000;stroke-width:1px;fill-rule:evenodd" d="m-147 940c-1.43-13.8-2.32-37.7-0.357-45.5 1.96-7.86 6.79-19.1 17.7-19.5 10.9-0.357 24.1-3.04 29.3 7.68 5.18 10.7 10.5 32.7 9.11 47.9-1.43 15.2-5.18 19.3-11.6 18.6-6.43-0.714-8.21-1.79-9.29-4.46-1.07-2.68-4.29-2.5 0-19.1s-10-30.4-10-30.4-8.04 8.04-6.61 21.4 8.02 29.7-1.09 31.9c-9.11 2.23-15.7 5.26-17.1-8.49z"/>
<g style="stroke-width:3" transform="translate(8.49 14.1)">
<path style="stroke:#000;stroke-width:3;fill:none" d="m-163 948 8.39-21.2 23.8-53.9 138-3.39 7.32 3.75 29.8 55.9"/>
<path style="stroke:#000;stroke-width:3;fill:none" d="m-145 905 174-5"/>
<path style="stroke:#000;stroke-width:3;fill:none" d="m105 925-5-61.4"/>
<path style="stroke:#000;stroke-width:3;fill:none" d="m355 865-1.43-13.6"/>
<path style="stroke:#000;stroke-width:3;fill:none" d="m632 897-1.43-53.2"/>
<path style="stroke:#000;stroke-width:3;fill:none" d="m685 902c0.714-2.86 5-59.6 5-59.6"/>
<path style="stroke:#000;stroke-width:3;stroke-linecap:round;fill:none" d="m860 896 31.4-53.6s8.93-16.8 26.8-17.5c17.9-0.714 115-6.43 120-7.14"/>
<path style="stroke:#000;stroke-width:3;fill:none" d="m987 903 36.1-53.6-3.21-29.6"/>
<path style="stroke:#000;stroke-width:3;fill:none" d="m871 898 38.2-53.2s5.17-16 53.4-20.3"/>
</g>
<path style="stroke:#000;stroke-width:2;fill:none" d="m606 731-109-786"/>
<path style="stroke:#000;stroke-width:1px;fill:none" d="m443 889 21-1.13e3 6.46-566"/>
<path style="stroke:#000;stroke-width:2;fill:none" d="m934 917c-10-14-452-1.73e3 -452-1.73e3"/>
<path style="stroke:#000;stroke-width:1px;fill:none" d="m966 917-484-1.73e3s513 1.71e3 513 1.73e3"/>
<path style="stroke:#000;stroke-width:2;fill:none" d="m-124 885c-2.02-10.1 592-1.7e3 592-1.7e3"/>
<path style="stroke:#000;stroke-width:2;fill:none" d="m61 776 410-1.58e3"/>
<path style="stroke:#000;stroke-width:1px;fill:none" d="m450 918 37-616"/>
<path style="stroke:#000;stroke-width:1px;fill:none" d="m625 912-19-184 39 184"/>
<path style="stroke:#000;stroke-width:1px;fill:none" d="m-144 931 1.43-169"/>
<path style="stroke:#000;stroke-width:2.5;fill:none" d="m234 914-5.1-41.7"/>
<path style="stroke:#000;stroke-width:1px;fill:none" d="m549 892-22-568c-9-193-23-387-20-581l-28.6-546"/>
<path style="stroke:#000;stroke-width:3;fill:none" d="m-95 885 35 64.6"/>
<path style="stroke:#000;stroke-width:1px;fill:none" d="m20 884c98.2 2.86 209-11.4 209-11.4"/>
<path style="stroke:#000;stroke-width:1px;fill:none" d="m229 872c220-0.357 410-13.6 410-13.6 150 2.5 300-13.9 300-13.9"/>
<path style="stroke:#000;stroke-width:1px;fill:none" d="m-90.7 892c94.6 0.357 200-12.9 200-12.9"/>
<path style="stroke:#000;stroke-width:1px;fill:none" d="m108 878c143 2.5 252-10.4 252-10.4 182 1.07 338-10.4 338-10.4 109 1.79 219-16.4 219-16.4"/>
<path style="stroke:#000;stroke-width:1px;fill:none" d="m41.5 914c90.9-2.02 191-10.1 191-10.1"/>
<path style="stroke:#000;stroke-width:1px;fill:none" d="m364 897c184 1.01 331-13.1 331-13.1 106 1.01 195-14.3 195-14.3"/>
<path style="stroke:#000;stroke-width:1px;fill:none" d="m907 875c-124 11.1-267 5.05-267 5.05-123 18.2-136 8.08-136 8.08"/>
<path style="stroke:#000;stroke-width:1px;fill:none" d="m-86.8 921c134 1.01 197-12.1 197-12.1 156 9.09 211-0.00001 211-0.00001"/>
<path style="stroke:#000;stroke-width:1px;fill:none" d="m47.5 781s6.06 49.5 13.1 23.7"/>
<path style="stroke:#000;stroke-width:1px;fill:none" d="m45.5 780s-4.55 59.1 57.6 56.1"/>
<path style="stroke:#000;stroke-width:.86px;fill:none" d="m133 834s-7.82 52.2-14.9 25.9c-7.07-26.4-7.45-26.4-7.45-26.4"/>
<path style="stroke:#000;stroke-width:1px;fill:none" d="m490 875-120-48.6"/>
<path style="stroke:#000;stroke-width:1.01px;fill:none" d="m524 888c-0.714-10.1-12.1-593-12.1-593l-6.43-33.3"/>
<path style="stroke:#000;stroke-width:1px;fill:none" d="m487 819c-52.3 24.7-112 7.78-112 7.78"/>
<path id="c" style="stroke:#000;stroke-width:.963px;fill-rule:evenodd" d="m189 874c-5.94 3.39-3.11 5.66-2.37 10.3-3.77 18.7-2.81 26.5 1.13 26.9 9.29-0.23 1.55-26.4 2.92-29.4 1.36-2.72 1.14-9.49-1.68-7.88z"/>
<use id="d" xlink:href="#c" transform="matrix(-.856 0 0 1 340 -1.45)" height="100%" width="100%" y="0" x="0"/>
<use xlink:href="#d" transform="matrix(1.01 0 0 .862 -10.6 122)" height="100%" width="100%" y="0" x="0"/>
<path style="stroke:#000;stroke-width:1px;fill:none" d="m188 878c-55.5 12.4-77.1-0.354-77.1-0.354s29.7 61.5 43.5 30.4c9.19-27.6 11.3-30.8 11.3-30.8"/>
<path style="stroke:#000;stroke-width:2;stroke-linecap:round;fill:none" d="m985 917c65 93 175 143 175 143"/>
</g>
</svg>
